<svg xmlns="http://www.w3.org/2000/svg" xmlns:xlink="http://www.w3.org/1999/xlink" width="1200" height="1200" viewBox="0 0 1200 1200"><rect width="100%" height="100%" fill="#333333" rx="60" ry="60"></rect><g transform="translate(600 600) scale(0.69 0.69) rotate(0) translate(-600 -600)" style="fill:#ffffff"><svg fill="#ffffff" xmlns="http://www.w3.org/2000/svg" xmlns:xlink="http://www.w3.org/1999/xlink" version="1.1" x="0px" y="0px" viewBox="0 0 52 52" enable-background="new 0 0 52 52" xml:space="preserve"><g><g><g><path d="M43,14.4997559H9v-5c0-1.6542969,1.3457031-3,3-3h28c1.6542969,0,3,1.3457031,3,3V14.4997559z M11,12.4997559h30v-3     c0-0.5512695-0.4482422-1-1-1H12c-0.5517578,0-1,0.4487305-1,1V12.4997559z"></path></g></g><g><g><path d="M38,50.5002441H14c-1.6542969,0-3-1.3457031-3-3V12.4997559h30v35.0004883     C41,49.154541,39.6542969,50.5002441,38,50.5002441z M13,14.4997559v33.0004883c0,0.5517578,0.4482422,1,1,1h24     c0.5517578,0,1-0.4482422,1-1V14.4997559H13z"></path></g></g><g><g><path d="M32,8.4997559H20v-4c0-1.6542969,1.3457031-3,3-3h6c1.6542969,0,3,1.3457031,3,3V8.4997559z M22,6.4997559h8v-2     c0-0.5512695-0.4482422-1-1-1h-6c-0.5517578,0-1,0.4487305-1,1V6.4997559z"></path></g></g><g><g><path d="M32,43.5002441c-0.5527344,0-1-0.4472656-1-1V20.4997559c0-0.5522461,0.4472656-1,1-1s1,0.4477539,1,1v22.0004883     C33,43.0529785,32.5527344,43.5002441,32,43.5002441z"></path></g></g><g><g><path d="M26,43.5002441c-0.5527344,0-1-0.4472656-1-1V20.4997559c0-0.5522461,0.4472656-1,1-1s1,0.4477539,1,1v22.0004883     C27,43.0529785,26.5527344,43.5002441,26,43.5002441z"></path></g></g><g><g><path d="M20,43.5002441c-0.5527344,0-1-0.4472656-1-1V20.4997559c0-0.5522461,0.4472656-1,1-1s1,0.4477539,1,1v22.0004883     C21,43.0529785,20.5527344,43.5002441,20,43.5002441z"></path></g></g></g></svg></g></svg>