<svg xmlns="http://www.w3.org/2000/svg" xmlns:xlink="http://www.w3.org/1999/xlink" width="1200" height="1200" viewBox="0 0 1200 1200"><rect width="100%" height="100%" fill="#2cc0de" rx="60" ry="60"></rect><g transform="translate(600 600) scale(0.69 0.69) rotate(0) translate(-600 -600)" style="fill:#ffffff"><svg fill="#ffffff" xmlns="http://www.w3.org/2000/svg" data-name="Слой 1" viewBox="0 0 128 128" x="0px" y="0px"><title>ic_checkbox_empty</title><path d="M54,56H2a2,2,0,0,1-2-2V2A2,2,0,0,1,2,0H54a2,2,0,0,1,2,2V54A2,2,0,0,1,54,56ZM4,52H52V4H4Z"></path><path d="M126,24H68a2,2,0,0,1,0-4h58a2,2,0,0,1,0,4Z"></path><path d="M54,128H2a2,2,0,0,1-2-2V74a2,2,0,0,1,2-2H54a2,2,0,0,1,2,2v52A2,2,0,0,1,54,128ZM4,124H52V76H4Z"></path><path d="M107,36H68a2,2,0,0,1,0-4h39a2,2,0,0,1,0,4Z"></path><path d="M126,96H68a2,2,0,0,1,0-4h58a2,2,0,0,1,0,4Z"></path><path d="M116,108H68a2,2,0,0,1,0-4h48a2,2,0,0,1,0,4Z"></path></svg></g></svg>