<svg xmlns="http://www.w3.org/2000/svg" xmlns:xlink="http://www.w3.org/1999/xlink" width="1200" height="1200" viewBox="0 0 1200 1200"><rect width="100%" height="100%" fill="#0080FF" rx="60" ry="60"></rect><g transform="translate(600 600) scale(0.69 0.69) rotate(0) translate(-600 -600)" style="fill:#FFFFFF"><svg fill="#FFFFFF" xmlns="http://www.w3.org/2000/svg" xmlns:xlink="http://www.w3.org/1999/xlink" version="1.1" x="0px" y="0px" viewBox="0 0 25 27" style="enable-background:new 0 0 25 27;" xml:space="preserve"><g><path d="M17.185,13.123C17.689,11.7,18,10.298,18,9c0-4.971-4.029-9-9-9C4.029,0,0,4.029,0,9c0,7,9,17,9,17   s1.054-1.171,2.439-2.991C11.16,22.224,11,21.381,11,20.5C11,16.807,13.671,13.745,17.185,13.123z M5,9c0-2.209,1.79-4,4-4   s4,1.791,4,4c0,2.21-1.79,4-4,4S5,11.21,5,9z"></path><path d="M18.5,14c-3.59,0-6.5,2.91-6.5,6.5s2.91,6.5,6.5,6.5c3.59,0,6.5-2.91,6.5-6.5S22.09,14,18.5,14z M18.499,24.5l-4.089-4.398   l0.732-0.682L18,22.495V17h1v5.493l2.856-3.073l0.732,0.682L18.499,24.5z"></path></g></svg></g></svg>