<svg xmlns="http://www.w3.org/2000/svg" xmlns:xlink="http://www.w3.org/1999/xlink" width="1200" height="1200" viewBox="0 0 1200 1200"><rect width="100%" height="100%" fill="#20222b" rx="60" ry="60"></rect><g transform="translate(600 600) scale(0.69 0.69) rotate(0) translate(-600 -600)" style="fill:#ffffff"><svg fill="#ffffff" xmlns="http://www.w3.org/2000/svg" xmlns:xlink="http://www.w3.org/1999/xlink" xmlns:a="http://ns.adobe.com/AdobeSVGViewerExtensions/3.0/" version="1.1" x="0px" y="0px" viewBox="-2.5 -2.5 30 30" overflow="visible" enable-background="new -2.5 -2.5 30 30" xml:space="preserve"><path d="M0,0v25h25V0H0z M14.666,3.488c0.797,0,1.443,0.646,1.443,1.444s-0.646,1.444-1.443,1.444c-0.799,0-1.443-0.646-1.443-1.444  S13.867,3.488,14.666,3.488z M15.417,7.771v9.457c-0.242-0.064-0.49-0.109-0.752-0.109s-0.512,0.045-0.754,0.109V7.771  c0.242,0.064,0.492,0.109,0.754,0.109S15.175,7.835,15.417,7.771z M3.943,21.512c-0.798,0-1.443-0.646-1.443-1.443  s0.646-1.443,1.443-1.443s1.444,0.646,1.444,1.443S4.741,21.512,3.943,21.512z M3.091,17.26V7.74  c0.271,0.083,0.554,0.141,0.853,0.141c0.225,0,0.441-0.03,0.653-0.078v9.395c-0.212-0.047-0.429-0.078-0.653-0.078  C3.645,17.119,3.362,17.178,3.091,17.26z M3.943,6.375C3.146,6.375,2.5,5.729,2.5,4.932s0.646-1.444,1.443-1.444  s1.444,0.646,1.444,1.444S4.741,6.375,3.943,6.375z M11.825,20.822H6.783c0.064-0.242,0.109-0.492,0.109-0.754  s-0.045-0.512-0.109-0.752h5.042c-0.064,0.24-0.109,0.49-0.109,0.752S11.761,20.58,11.825,20.822z M11.825,5.684H6.783  c0.064-0.241,0.109-0.491,0.109-0.752c0-0.262-0.045-0.511-0.109-0.753h5.042c-0.064,0.242-0.109,0.491-0.109,0.753  C11.716,5.193,11.761,5.443,11.825,5.684z M16.109,20.068c0,0.797-0.646,1.443-1.443,1.443c-0.799,0-1.443-0.646-1.443-1.443  s0.645-1.443,1.443-1.443c0.084,0,0.166,0.012,0.246,0.025l4.902-7.105l1.238,0.855l-5.008,7.261  C16.082,19.791,16.109,19.926,16.109,20.068z M21.777,11.353l-1.24-0.854l0.723-1.049l1.24,0.855L21.777,11.353z"></path></svg></g></svg>