<svg xmlns="http://www.w3.org/2000/svg" xmlns:xlink="http://www.w3.org/1999/xlink" width="1200" height="1200" viewBox="0 0 1200 1200"><rect width="100%" height="100%" fill="#FF8400" rx="60" ry="60"></rect><g transform="translate(600 600) scale(0.69 0.69) rotate(0) translate(-600 -600)" style="fill:#1A1A1A"><svg fill="#1A1A1A" xmlns="http://www.w3.org/2000/svg" xmlns:xlink="http://www.w3.org/1999/xlink" viewBox="0 0 16 24" version="1.1" x="0px" y="0px"><title>47 - Edit Joint (design, graphic, tool)</title><desc>Created with Sketch.</desc><g stroke="none" stroke-width="1" fill="none" fill-rule="evenodd"><g transform="translate(-247.000000, -685.000000)" fill="#1A1A1A"><g transform="translate(247.000000, 685.000000)"><path d="M2,4 C2,2.897 2.897,2 4,2 C5.103,2 6,2.897 6,4 C6,4.711 5.624,5.349 5.038,5.702 L4.786,5.382 C4.543,5.072 4.141,4.936 3.757,5.03 C3.665,5.053 3.579,5.09 3.499,5.136 C3.472,5.152 3.45,5.174 3.425,5.192 C3.375,5.227 3.326,5.262 3.284,5.306 C3.259,5.331 3.241,5.361 3.219,5.389 C3.185,5.433 3.15,5.477 3.124,5.527 C3.106,5.559 3.095,5.594 3.081,5.628 C3.066,5.666 3.045,5.701 3.034,5.74 C2.416,5.4 2,4.745 2,4 M15.786,19.382 L6.274,7.276 C7.329,6.547 8,5.343 8,4 C8,1.794 6.206,0 4,0 C1.794,0 0,1.794 0,4 C0,5.727 1.116,7.195 2.677,7.745 L0.016,22.826 C-0.058,23.24 0.136,23.655 0.498,23.865 C0.654,23.956 0.827,24 1,24 C1.229,24 1.456,23.921 1.641,23.768 L7.25,19.093 L14.758,20.97 C15.172,21.073 15.607,20.901 15.839,20.544 C16.071,20.185 16.051,19.718 15.786,19.382"></path></g></g></g></svg></g></svg>