<svg xmlns="http://www.w3.org/2000/svg" xmlns:xlink="http://www.w3.org/1999/xlink" width="1200" height="1200" viewBox="0 0 1200 1200"><rect width="100%" height="100%" fill="#3BB300" rx="60" ry="60"></rect><g transform="translate(600 600) scale(0.69 0.69) rotate(0) translate(-600 -600)" style="fill:#FFFFFF"><svg fill="#FFFFFF" xmlns:dc="http://purl.org/dc/elements/1.1/" xmlns:cc="http://creativecommons.org/ns#" xmlns:rdf="http://www.w3.org/1999/02/22-rdf-syntax-ns#" xmlns:svg="http://www.w3.org/2000/svg" xmlns="http://www.w3.org/2000/svg" xmlns:sodipodi="http://sodipodi.sourceforge.net/DTD/sodipodi-0.dtd" xmlns:inkscape="http://www.inkscape.org/namespaces/inkscape" viewBox="0 0 16.933333 16.933334" version="1.1" x="0px" y="0px"><g transform="translate(0,-280.06665)"><path style="color:#000000;font-style:normal;font-variant:normal;font-weight:normal;font-stretch:normal;font-size:medium;line-height:normal;font-family:sans-serif;font-variant-ligatures:normal;font-variant-position:normal;font-variant-caps:normal;font-variant-numeric:normal;font-variant-alternates:normal;font-feature-settings:normal;text-indent:0;text-align:start;text-decoration:none;text-decoration-line:none;text-decoration-style:solid;text-decoration-color:#000000;letter-spacing:normal;word-spacing:normal;text-transform:none;writing-mode:lr-tb;direction:ltr;text-orientation:mixed;dominant-baseline:auto;baseline-shift:baseline;text-anchor:start;white-space:normal;shape-padding:0;clip-rule:nonzero;display:inline;overflow:visible;visibility:visible;opacity:1;isolation:auto;mix-blend-mode:normal;color-interpolation:sRGB;color-interpolation-filters:linearRGB;solid-color:#000000;solid-opacity:1;vector-effect:none;fill:#FFFFFF;fill-opacity:1;fill-rule:nonzero;stroke:none;stroke-width:0.52899998;stroke-linecap:round;stroke-linejoin:round;stroke-miterlimit:4;stroke-dasharray:none;stroke-dashoffset:0;stroke-opacity:1;paint-order:normal;color-rendering:auto;image-rendering:auto;shape-rendering:auto;text-rendering:auto;enable-background:accumulate" d="m 11.187953,282.7125 a 0.26452645,0.26452645 0 0 0 -0.184997,0.078 l -1.3089467,1.31 2.9936017,2.99361 1.309476,-1.30948 a 0.26452645,0.26452645 0 0 0 0,-0.37568 l -2.618449,-2.61845 a 0.26452645,0.26452645 0 0 0 -0.190685,-0.078 z m -1.8670591,1.76268 -5.4265514,5.42448 a 0.26452645,0.26452645 0 0 0 -0.06821,0.11937 l -0.9591146,3.57808 a 0.26452645,0.26452645 0 0 0 0.3240088,0.32401 L 6.7691199,292.962 a 0.26452645,0.26452645 0 0 0 0.1172898,-0.0682 l 1.2898438,-1.28984 c 0.1668991,-1.30945 1.206156,-2.34878 2.5156055,-2.51561 l 1.621102,-1.62109 z"></path><path style="color:#000000;font-style:normal;font-variant:normal;font-weight:normal;font-stretch:normal;font-size:medium;line-height:normal;font-family:sans-serif;font-variant-ligatures:normal;font-variant-position:normal;font-variant-caps:normal;font-variant-numeric:normal;font-variant-alternates:normal;font-feature-settings:normal;text-indent:0;text-align:start;text-decoration:none;text-decoration-line:none;text-decoration-style:solid;text-decoration-color:#000000;letter-spacing:normal;word-spacing:normal;text-transform:none;writing-mode:lr-tb;direction:ltr;text-orientation:mixed;dominant-baseline:auto;baseline-shift:baseline;text-anchor:start;white-space:normal;shape-padding:0;clip-rule:nonzero;display:inline;overflow:visible;visibility:visible;opacity:1;isolation:auto;mix-blend-mode:normal;color-interpolation:sRGB;color-interpolation-filters:linearRGB;solid-color:#000000;solid-opacity:1;vector-effect:none;fill:#FFFFFF;fill-opacity:1;fill-rule:nonzero;stroke:none;stroke-width:0.52916676;stroke-linecap:butt;stroke-linejoin:round;stroke-miterlimit:4;stroke-dasharray:none;stroke-dashoffset:0;stroke-opacity:1;paint-order:normal;color-rendering:auto;image-rendering:auto;shape-rendering:auto;text-rendering:auto;enable-background:accumulate" d="m 11.060847,289.59167 c -1.3184983,0 -2.3812502,1.06277 -2.3812502,2.38125 0,1.31848 1.0627519,2.38125 2.3812502,2.38125 1.318472,0 2.38125,-1.06277 2.38125,-2.38125 0,-1.31848 -1.062778,-2.38125 -2.38125,-2.38125 z m 1.405599,1.38751 a 0.26460982,0.26460982 0 0 1 0.191717,0.4532 l -1.836076,1.83555 a 0.26460982,0.26460982 0 0 1 -0.375153,0 l -1.1622086,-1.16169 a 0.26460982,0.26460982 0 1 1 0.3751527,-0.3731 l 0.9746189,0.97461 1.648487,-1.64847 a 0.26460982,0.26460982 0 0 1 0.183462,-0.0801 z"></path></g></svg></g></svg>