<svg width="512" height="512" viewBox="0 0 512 512" fill="none" xmlns="http://www.w3.org/2000/svg">
<rect width="512" height="512" fill="white"/>
<rect width="511" height="511" fill="#B30000"/>
<g clip-path="url(#clip0)">
<path d="M233.74 414.272C203.005 414.067 178.212 398.085 168.582 373.497C158.337 347.475 162.23 323.092 181.285 302.192C199.726 281.907 228.412 274.94 253.41 285.185C261.401 288.464 264.884 286.824 267.958 279.653C269.187 276.579 271.236 273.711 273.285 270.842C275.949 267.154 275.129 264.695 272.056 261.212C250.951 237.034 256.484 207.528 284.555 191.956C285.989 191.136 288.653 190.112 288.653 189.497C287.833 182.736 286.604 176.179 285.169 169.622C283.735 163.27 283.735 156.918 274.105 155.484C259.762 153.025 251.361 140.116 252.181 125.364C252.795 111.635 262.221 100.776 275.744 98.112C289.267 95.4483 302.176 101.8 308.118 113.889C314.265 126.183 312.011 140.526 301.152 149.132C295.414 153.64 295.043 155.484 296.156 164.388C296.719 168.885 297.72 172.64 298.405 176.193C300.864 188.941 300.127 186.873 315.495 191.136C335.985 195.439 348.279 218.388 344.385 239.083C340.287 260.188 321.437 275.965 300.127 273.301C289.063 271.867 284.555 275.76 279.637 284.161C275.129 291.947 273.49 296.455 280.662 304.651C299.103 325.346 301.971 350.138 290.702 375.341C279.022 400.749 257.713 413.452 233.74 414.272ZM175.958 347.885C176.163 377.595 200.546 401.568 230.461 401.568C260.172 401.568 284.35 376.98 283.94 347.065C283.735 317.15 259.352 293.176 229.642 293.381C199.931 293.586 175.753 318.174 175.958 347.885ZM301.971 261.007C318.158 261.007 332.091 247.484 332.296 231.297C332.501 215.315 318.568 201.176 302.586 200.767C285.989 200.357 272.261 214.29 272.056 231.297C272.056 247.894 285.169 261.007 301.971 261.007ZM261.811 126.183C261.401 137.453 269.802 146.878 280.867 147.083C291.726 147.493 301.152 138.477 301.357 127.413C301.561 116.553 292.341 106.923 281.481 106.923C271.031 106.923 262.221 115.324 261.811 126.183Z" fill="white"/>
</g>
<defs>
<clipPath id="clip0">
<rect width="181.951" height="316.775" fill="white" transform="translate(163.049 97.4951)"/>
</clipPath>
</defs>
</svg>
