<svg height='300px' width='300px'  fill="#b30000" xmlns="http://www.w3.org/2000/svg" xmlns:xlink="http://www.w3.org/1999/xlink" viewBox="0 0 24 24" version="1.1" x="0px" y="0px"><title>234234</title><desc>Created with Sketch.</desc><g stroke="none" stroke-width="1" fill="none" fill-rule="evenodd"><g transform="translate(4.000000, 4.000000)" fill="#b30000"><path d="M8.0001,0.0001 C3.5811,0.0001 0.0001,3.5811 0.0001,8.0001 C0.0001,12.4191 3.5811,16.0001 8.0001,16.0001 C12.4191,16.0001 16.0001,12.4191 16.0001,8.0001 C16.0001,3.5811 12.4191,0.0001 8.0001,0.0001 M8.0001,0.8001 C11.9701,0.8001 15.2001,4.0301 15.2001,8.0001 C15.2001,11.9701 11.9701,15.2001 8.0001,15.2001 C4.0301,15.2001 0.8001,11.9701 0.8001,8.0001 C0.8001,4.0301 4.0301,0.8001 8.0001,0.8001"></path><path d="M10.9239,11.3888 C10.7899,11.3888 10.6509,11.3208 10.5229,11.1918 C9.7219,10.4098 8.9419,9.6308 8.1619,8.8318 L8.0209,8.6868 L5.5159,11.1918 C5.3919,11.3158 5.2559,11.3818 5.1219,11.3818 C5.0029,11.3818 4.8879,11.3288 4.7889,11.2298 C4.6839,11.1318 4.6319,11.0258 4.6309,10.9108 C4.6289,10.7748 4.6959,10.6338 4.8269,10.5038 C5.6089,9.7028 6.3879,8.9228 7.1869,8.1428 L7.3319,8.0018 L4.8269,5.4968 C4.5879,5.2578 4.5729,4.9858 4.7889,4.7698 C4.8889,4.6628 4.9969,4.6118 5.1139,4.6118 C5.2479,4.6118 5.3869,4.6798 5.5159,4.8078 C6.3169,5.5898 7.0959,6.3698 7.8759,7.1678 L8.0179,7.3128 L10.5229,4.8078 C10.6459,4.6838 10.7819,4.6188 10.9169,4.6188 C11.0349,4.6188 11.1509,4.6708 11.2499,4.7698 C11.3539,4.8678 11.4059,4.9738 11.4079,5.0888 C11.4099,5.2248 11.3419,5.3658 11.2109,5.4968 C10.4289,6.2968 9.6499,7.0768 8.8509,7.8568 L8.7039,7.9998 L8.8509,8.1428 C9.3799,8.6598 9.9009,9.1838 10.4179,9.7058 L11.2109,10.5038 C11.3309,10.6238 11.3969,10.7558 11.4009,10.8868 C11.4029,11.0088 11.3509,11.1278 11.2489,11.2298 C11.1489,11.3368 11.0409,11.3888 10.9239,11.3888"></path></g></g></svg>