<svg xmlns="http://www.w3.org/2000/svg" xmlns:xlink="http://www.w3.org/1999/xlink" width="1200" height="1200" viewBox="0 0 1200 1200"><rect width="100%" height="100%" fill="#2cc0de" rx="60" ry="60"></rect><g transform="translate(600 600) scale(0.69 0.69) rotate(0) translate(-600 -600)" style="fill:#ffffff"><svg fill="#ffffff" xmlns:dc="http://purl.org/dc/elements/1.1/" xmlns:cc="http://creativecommons.org/ns#" xmlns:rdf="http://www.w3.org/1999/02/22-rdf-syntax-ns#" xmlns:svg="http://www.w3.org/2000/svg" xmlns="http://www.w3.org/2000/svg" xmlns:sodipodi="http://sodipodi.sourceforge.net/DTD/sodipodi-0.dtd" xmlns:inkscape="http://www.inkscape.org/namespaces/inkscape" viewBox="0 0 8.4666665 8.4666669" version="1.1" x="0px" y="0px"><g transform="translate(0,-288.53333)"><path style="color:#000000;font-style:normal;font-variant:normal;font-weight:normal;font-stretch:normal;font-size:medium;line-height:normal;font-family:sans-serif;font-variant-ligatures:normal;font-variant-position:normal;font-variant-caps:normal;font-variant-numeric:normal;font-variant-alternates:normal;font-feature-settings:normal;text-indent:0;text-align:start;text-decoration:none;text-decoration-line:none;text-decoration-style:solid;text-decoration-color:#000000;letter-spacing:normal;word-spacing:normal;text-transform:none;writing-mode:lr-tb;direction:ltr;text-orientation:mixed;dominant-baseline:auto;baseline-shift:baseline;text-anchor:start;white-space:normal;shape-padding:0;clip-rule:nonzero;display:inline;overflow:visible;visibility:visible;opacity:1;isolation:auto;mix-blend-mode:normal;color-interpolation:sRGB;color-interpolation-filters:linearRGB;solid-color:#000000;solid-opacity:1;vector-effect:none;fill:#ffffff;fill-opacity:1;fill-rule:nonzero;stroke:none;stroke-width:0.5291667;stroke-linecap:butt;stroke-linejoin:miter;stroke-miterlimit:4;stroke-dasharray:none;stroke-dashoffset:0;stroke-opacity:1;color-rendering:auto;image-rendering:auto;shape-rendering:auto;text-rendering:auto;enable-background:accumulate" d="m 6.2869546,289.325 c -0.3544543,0 -0.7107132,0.13711 -0.9808183,0.40721 l -1.0728035,1.07281 -0.6066816,-0.60669 -0.3741367,0.37414 0.6066816,0.60668 -1.9642217,1.96423 -1.15238468,2.59208 0.52193288,0.52194 2.5920886,-1.15239 1.9642217,-1.96422 0.6066816,0.60668 0.3741367,-0.37414 -0.6066816,-0.60668 1.0728034,-1.0728 c 0.5401495,-0.54015 0.5401442,-1.42149 0,-1.96164 C 6.9976678,289.46211 6.6414063,289.325 6.2869546,289.325 Z m 0,0.52917 c 0.2194269,0 0.4370493,0.0826 0.6066817,0.25218 0.3393228,0.33933 0.3393254,0.87404 0,1.21336 l -1.0728034,1.07281 -1.2133633,-1.21337 1.0728034,-1.0728 c 0.1696323,-0.16963 0.3872521,-0.25218 0.6066816,-0.25218 z m -2.0536218,1.69912 1.2133633,1.21336 -1.8949749,1.89498 -2.1704115,0.96428 -0.00722,-0.007 0.9642819,-2.17041 z"></path></g></svg></g></svg>