<?xml version="1.0" encoding="UTF-8"?>
<svg width="752pt" height="752pt" version="1.1" viewBox="0 0 752 752" xmlns="http://www.w3.org/2000/svg">
 <g>
  <rect width="752" height="752" fill="#d8bc00"/>
  <path d="m447.6 194.95h-284.96v362.11h368.39l58.324-0.003907v-362.11zm-7.0547 7.3984c-0.88672 0.96094-1.6875 1.9492-2.5586 2.9141-1.5352 1.707-3.0352 3.4219-4.5078 5.1406-1.8203 2.1328-3.5977 4.2734-5.3281 6.4219-1.3945 1.7383-2.7773 3.4727-4.1133 5.2227-1.6719 2.1836-3.2812 4.3906-4.8594 6.5938-1.2539 1.7461-2.5 3.4922-3.6992 5.2539-1.5273 2.2578-2.9766 4.5273-4.4062 6.8086-1.1016 1.7461-2.2148 3.4922-3.2617 5.25-1.3945 2.3516-2.6875 4.7227-3.9805 7.0938-0.9375 1.7148-1.9023 3.4297-2.7891 5.1562-1.2773 2.5-2.4375 5.0234-3.6016 7.543-0.75391 1.6328-1.5586 3.25-2.2695 4.8906-1.2188 2.8164-2.293 5.6602-3.375 8.5-0.51953 1.3711-1.1094 2.7266-1.5938 4.1055-1.5 4.2344-2.8672 8.4883-4.0586 12.777-0.74609 2.6719-1.6094 5.3125-2.5664 7.9141-0.31641 0.85156-0.70703 1.6836-1.0391 2.5273-0.6875 1.7266-1.3633 3.457-2.1406 5.1484-0.45703 1-0.99609 1.9688-1.4844 2.9609-0.74609 1.5039-1.4648 3.0156-2.2773 4.4883-0.57031 1.0312-1.2148 2.0391-1.8164 3.0586-0.82422 1.3906-1.6172 2.793-2.5 4.1602-0.66406 1.0391-1.4023 2.0469-2.1016 3.0742-0.89844 1.3125-1.7773 2.6328-2.7266 3.9219-0.75391 1.0273-1.5703 2.0195-2.3516 3.0273-0.97656 1.25-1.9336 2.5078-2.9531 3.7305-0.83984 1.0117-1.7383 1.9922-2.6055 2.9883-1.0391 1.1875-2.0664 2.3828-3.1484 3.5469-0.91797 0.98828-1.875 1.9492-2.8164 2.9141-1.1094 1.1406-2.207 2.2852-3.3555 3.3984-0.97656 0.95703-1.9961 1.8906-3 2.8281-1.1758 1.1016-2.3438 2.1992-3.5469 3.2773-1.0352 0.92188-2.1055 1.8242-3.1719 2.7344-1.2344 1.0508-2.457 2.1133-3.7148 3.1406-1.1016 0.89844-2.2266 1.7773-3.3438 2.6602-1.2773 1.0078-2.5508 2.0195-3.8516 3-1.1484 0.86719-2.3203 1.7227-3.4883 2.5703-1.3203 0.96875-2.6445 1.9336-3.9922 2.8828-1.1875 0.83203-2.3984 1.6562-3.6055 2.4766-1.3633 0.92578-2.7227 1.8555-4.1094 2.7617-1.2344 0.80859-2.4727 1.5977-3.7148 2.3867-1.3945 0.88672-2.793 1.7695-4.2031 2.6406-1.2617 0.77344-2.5391 1.5391-3.8125 2.3008-1.4258 0.84766-2.8477 1.6914-4.2812 2.5195-1.2891 0.73828-2.5781 1.4766-3.8828 2.1992-1.4453 0.8125-2.8945 1.6211-4.3555 2.4141-1.3086 0.71094-2.625 1.4141-3.9375 2.1133-1.4609 0.77344-2.9258 1.543-4.3945 2.3008-1.3281 0.67969-2.6523 1.3555-3.9844 2.0234-1.4688 0.73438-2.9414 1.4648-4.4141 2.1836-1.3438 0.65234-2.6836 1.2969-4.0273 1.9375-1.4688 0.69922-2.9414 1.3906-4.4141 2.0664-1.3477 0.62109-2.6953 1.2422-4.0469 1.8516-1.4648 0.66016-2.9258 1.3125-4.3906 1.9531-1.3516 0.59766-2.6992 1.1836-4.0508 1.7656-1.4609 0.625-2.9219 1.2422-4.375 1.8555-1.332 0.55859-2.6641 1.1133-3.9922 1.6562-1.457 0.59766-2.9023 1.1836-4.3477 1.7617-1.3281 0.53125-2.6523 1.0625-3.9727 1.5781-1.4297 0.55859-2.8516 1.1094-4.2656 1.6484-1.3125 0.50391-2.6211 1-3.918 1.4883-1.4023 0.52344-2.7891 1.0352-4.1719 1.543-1.293 0.47266-2.5859 0.94531-3.8633 1.4062-1.3711 0.49219-2.7266 0.97266-4.0781 1.4453-1.2617 0.44531-2.5195 0.88672-3.7695 1.3164-1.3203 0.45312-2.625 0.89844-3.9258 1.3359-1.25 0.41797-2.4961 0.84375-3.7227 1.25-1.2539 0.41406-2.4805 0.8125-3.7109 1.2148-1.2383 0.39844-2.4766 0.80469-3.6914 1.1875-1.1562 0.37109-2.2852 0.71875-3.418 1.0742-1.2383 0.39062-2.4805 0.78125-3.6953 1.1445-1.0703 0.32422-2.1055 0.63672-3.1523 0.95312-1.2148 0.36328-2.4375 0.73438-3.6211 1.0859-0.96875 0.28516-1.8945 0.55078-2.832 0.82422-1.207 0.35156-2.4258 0.70703-3.5977 1.0352-0.84375 0.24219-1.6445 0.46484-2.4648 0.69531-1.1992 0.33594-2.4062 0.67578-3.5586 0.99219-0.11719 0.035156-0.22656 0.0625-0.34375 0.09375l-0.007812-52.43c0.3125-0.09375 0.64062-0.19141 0.95703-0.28125 0.91797-0.26562 1.8438-0.53906 2.7773-0.82031 0.73828-0.21875 1.4844-0.44531 2.2383-0.67188 0.95703-0.29297 1.9258-0.58594 2.9023-0.88672 0.77344-0.23828 1.5547-0.47656 2.3398-0.72656 0.97266-0.30469 1.9492-0.61719 2.9336-0.92578 0.82422-0.26172 1.6523-0.53125 2.4844-0.80469 0.97266-0.31641 1.9531-0.63672 2.9414-0.96875 0.85938-0.28516 1.7266-0.57812 2.5938-0.875 0.99219-0.33594 1.9883-0.67969 2.9883-1.0273 0.88672-0.3125 1.7812-0.62109 2.6797-0.9375 0.99609-0.35156 1.9961-0.71094 3.0039-1.0703 0.91406-0.33203 1.8242-0.66406 2.7422-1 1.0195-0.375 2.043-0.75391 3.0742-1.1406 0.92188-0.35156 1.8516-0.70703 2.7773-1.0625 1.0156-0.39062 2.0273-0.78516 3.0469-1.1836 0.96094-0.37891 1.9297-0.76562 2.8945-1.1562 1.0117-0.40625 2.0234-0.8125 3.0391-1.2344 0.95703-0.39453 1.9141-0.79297 2.875-1.1992 1.0312-0.43359 2.0625-0.86719 3.0977-1.3164 0.96875-0.41406 1.9336-0.83984 2.9023-1.2617 1.0156-0.44531 2.0273-0.89453 3.043-1.3516 0.99219-0.44531 1.9766-0.90234 2.9766-1.3633 1-0.46484 2.0039-0.92578 3-1.4023 0.99219-0.46875 1.9844-0.94531 2.9766-1.4297 0.99219-0.47656 1.9766-0.96094 2.9648-1.4492 0.99609-0.49219 1.9844-1 2.9766-1.5039 0.98047-0.50391 1.9648-1.0078 2.9453-1.5195s1.9531-1.0391 2.9258-1.5625c0.97656-0.52344 1.9531-1.0508 2.9219-1.582 0.97266-0.54297 1.9375-1.0938 2.9062-1.6445 0.95312-0.54297 1.9023-1.0859 2.8516-1.6445 0.96094-0.56641 1.918-1.1445 2.875-1.7227 0.93359-0.5625 1.8633-1.125 2.7891-1.6953 0.94531-0.59375 1.8828-1.1953 2.8203-1.7969 0.91406-0.58594 1.8203-1.1641 2.7188-1.7617 0.93359-0.61719 1.8516-1.25 2.7656-1.8789 0.87891-0.60547 1.7617-1.2031 2.6289-1.8164 0.91797-0.64453 1.8086-1.3125 2.707-1.9688 0.84375-0.61719 1.6953-1.2344 2.5273-1.8633 0.89453-0.67969 1.7617-1.3711 2.6406-2.0625 0.80859-0.63672 1.6289-1.2695 2.4219-1.918 0.875-0.71484 1.7148-1.4414 2.5703-2.1641 0.76562-0.65234 1.5391-1.293 2.2891-1.9531 0.84375-0.73828 1.6523-1.5039 2.4766-2.2578 0.72656-0.67188 1.4648-1.332 2.1719-2.0117 0.80859-0.77344 1.5781-1.5625 2.3633-2.3516 0.67969-0.6875 1.375-1.3633 2.043-2.0625 0.76953-0.80469 1.5-1.6328 2.2461-2.4531 0.63672-0.70703 1.293-1.4023 1.9102-2.1172 0.71875-0.82812 1.3945-1.6836 2.082-2.5273 0.60156-0.73047 1.2148-1.4492 1.7891-2.1953 0.67578-0.86719 1.3086-1.7578 1.9531-2.6445 0.54297-0.73828 1.1055-1.4688 1.6211-2.2188 0.63672-0.92188 1.2266-1.8633 1.832-2.8008 0.47266-0.73438 0.97656-1.4648 1.4297-2.2148 0.59766-0.98047 1.1328-1.9844 1.6914-2.9805 0.41016-0.73047 0.84375-1.4492 1.2344-2.1953 0.55078-1.0508 1.0469-2.1367 1.5547-3.207 0.33594-0.71094 0.70703-1.4062 1.0195-2.1211 0.53906-1.2188 1.0078-2.4648 1.4844-3.7031 0.23047-0.59766 0.49219-1.1797 0.71094-1.7812 0.66406-1.8555 1.2734-3.7383 1.8047-5.6484 0.98828-3.5352 2.125-7.043 3.4102-10.527 0.47656-1.293 1.0703-2.5664 1.5898-3.8477 0.875-2.1758 1.7109-4.3594 2.7031-6.5117 0.67578-1.4688 1.4805-2.9102 2.2109-4.3672 0.97266-1.9453 1.8945-3.8984 2.9648-5.8203 0.83984-1.5078 1.8047-2.9883 2.7031-4.4883 1.1016-1.8398 2.1523-3.6914 3.3398-5.5039 0.99219-1.5156 2.1055-3 3.1641-4.5039 1.2383-1.7695 2.4336-3.5508 3.7578-5.3086 1.1289-1.4883 2.3828-2.9531 3.5703-4.4297 1.3906-1.7266 2.7344-3.4648 4.207-5.1719 1.2695-1.4648 2.6523-2.9023 3.9805-4.3516 1.543-1.6836 3.0391-3.3789 4.6602-5.043 1.3906-1.4258 2.8906-2.8164 4.3398-4.2227 1.5391-1.4883 3.043-2.9883 4.6406-4.4648l64.324 0.011719zm-136.57 2.7891c0.83203-0.93359 1.6641-1.8633 2.5312-2.7891h58.922c-0.5625 0.55078-1.0664 1.125-1.6172 1.6758-1.3438 1.3438-2.6289 2.7031-3.9219 4.0664-1.6875 1.7773-3.3477 3.5625-4.9492 5.3633-1.2344 1.3906-2.4375 2.793-3.6172 4.2031-1.5234 1.8086-3 3.625-4.4336 5.457-1.1133 1.4258-2.2148 2.8555-3.2773 4.2969-1.3672 1.8555-2.6719 3.7227-3.957 5.6055-0.98047 1.4414-1.9648 2.8828-2.8945 4.3359-1.2344 1.9297-2.3867 3.8789-3.5273 5.832-0.83203 1.4297-1.6914 2.8555-2.4727 4.2969-1.1211 2.0586-2.1406 4.1289-3.1523 6.207-0.66406 1.3672-1.375 2.7227-1.9961 4.0977-1.0508 2.3242-1.9844 4.668-2.9062 7.0156-0.45703 1.1602-0.97266 2.3047-1.3945 3.4688-1.2891 3.5273-2.4453 7.0781-3.4492 10.664-0.51172 1.8516-1.1094 3.6758-1.7695 5.4727-0.22266 0.61719-0.5 1.207-0.73828 1.8164-0.46875 1.1758-0.92578 2.3516-1.4492 3.5078-0.32422 0.71875-0.70703 1.4141-1.0508 2.125-0.50391 1.0156-0.99219 2.043-1.5391 3.0391-0.41016 0.75-0.86328 1.4805-1.2969 2.2266-0.54688 0.93359-1.082 1.875-1.6641 2.793-0.47656 0.75-0.99609 1.4883-1.5 2.2305-0.59766 0.88281-1.1836 1.7695-1.8164 2.6406-0.53906 0.73828-1.1133 1.4688-1.6758 2.1992-0.64453 0.84375-1.2891 1.6875-1.957 2.5156-0.59766 0.73047-1.2266 1.4453-1.8438 2.1641-0.69531 0.80469-1.3828 1.6133-2.1016 2.4023-0.65234 0.71875-1.332 1.4219-2.0039 2.125-0.73047 0.76953-1.4609 1.5391-2.2148 2.2891-0.70703 0.69922-1.4297 1.3906-2.1562 2.082-0.76953 0.73438-1.543 1.4688-2.3398 2.1953-0.73828 0.67578-1.5 1.3438-2.2578 2.0117-0.8125 0.71094-1.6289 1.4258-2.4609 2.1211-0.78516 0.65625-1.5781 1.3008-2.3711 1.9492-0.84375 0.6875-1.6914 1.3633-2.5508 2.0312-0.82422 0.63672-1.6523 1.2695-2.4844 1.8945-0.875 0.65625-1.7461 1.3086-2.6328 1.9492-0.85156 0.61719-1.7109 1.2266-2.5742 1.8359-0.89844 0.625-1.7969 1.25-2.7031 1.8633-0.88281 0.59766-1.7656 1.1875-2.6602 1.7695-0.92188 0.60156-1.8438 1.1992-2.7773 1.7891-0.90234 0.57031-1.8047 1.1406-2.7148 1.7031-0.94141 0.58203-1.8906 1.1562-2.8398 1.7266-0.91406 0.54297-1.832 1.0898-2.7461 1.6211-0.96094 0.55859-1.9297 1.1094-2.9023 1.6562-0.92578 0.52344-1.8516 1.0391-2.7812 1.5547-0.97266 0.53125-1.9531 1.0625-2.9336 1.582-0.93359 0.50391-1.8711 1-2.8125 1.4961-0.98047 0.51172-1.9648 1.0117-2.9492 1.5078-0.94141 0.47656-1.8828 0.95703-2.832 1.4297-0.99219 0.49219-1.9844 0.97266-2.9805 1.4453-0.9375 0.45312-1.875 0.91406-2.8125 1.3516-1.0078 0.47266-2.0078 0.93359-3.0078 1.3906-0.92578 0.42578-1.8516 0.85156-2.7734 1.2734-1.0156 0.45312-2.0273 0.89844-3.0352 1.3438-0.91406 0.39844-1.8203 0.80469-2.7266 1.1953-1.0117 0.43359-2.0117 0.85156-3.0156 1.2734-0.89844 0.375-1.7969 0.75781-2.6875 1.1289-1.0078 0.41406-1.9961 0.80859-2.9961 1.207-0.87891 0.35547-1.7656 0.71484-2.6406 1.0625-0.99609 0.39453-1.9727 0.76562-2.9609 1.1445-0.85938 0.33203-1.7227 0.67188-2.5703 0.99219-1.1406 0.42969-2.2578 0.83984-3.3789 1.2539-0.66016 0.24219-1.3359 0.5-1.9922 0.73828-1.7695 0.64453-3.5234 1.2695-5.2422 1.875-0.28125 0.097656-0.54688 0.1875-0.82812 0.28516-1.4336 0.50391-2.8594 0.99219-4.2539 1.4609-0.71484 0.24219-1.3945 0.46484-2.0977 0.69531-0.93359 0.3125-1.8789 0.625-2.7891 0.92578-0.75781 0.24609-1.4883 0.47656-2.2344 0.71484-0.82812 0.27734-1.6562 0.54297-2.457 0.79688-0.73047 0.22656-1.4297 0.44531-2.1445 0.66406-0.77344 0.23828-1.5547 0.48438-2.3047 0.71094-0.6875 0.20703-1.3359 0.39844-1.9961 0.59766-0.60156 0.18359-1.207 0.35937-1.7891 0.53125v-46.383c0.92578-0.31641 1.8789-0.66406 2.8164-0.99219 1.3164-0.45703 2.625-0.91406 3.9531-1.3906 1.3945-0.50391 2.7969-1.0312 4.207-1.5547 1.3516-0.50781 2.6992-1.0078 4.0586-1.5391 1.4062-0.54297 2.8125-1.1211 4.2188-1.6875 1.3828-0.55859 2.7578-1.1094 4.1328-1.6875 1.4062-0.59375 2.8086-1.207 4.2148-1.8242 1.3828-0.60547 2.7656-1.2031 4.1445-1.832 1.4062-0.64062 2.7969-1.3164 4.1914-1.9766 1.3672-0.65234 2.7344-1.293 4.0898-1.9688 1.3945-0.69531 2.7656-1.4219 4.1445-2.1406 1.3359-0.69922 2.6836-1.3867 4.0117-2.1133 1.3672-0.74609 2.7031-1.5352 4.0508-2.3047 1.2969-0.74609 2.6055-1.4805 3.8828-2.25 1.332-0.80859 2.625-1.6484 3.9336-2.4805 1.2422-0.79297 2.4961-1.5703 3.7109-2.3828 1.293-0.86719 2.5312-1.7812 3.7891-2.6797 1.168-0.83203 2.3594-1.6523 3.4922-2.5117 1.2383-0.9375 2.418-1.9258 3.6172-2.8906 1.082-0.875 2.1836-1.7266 3.2266-2.625 1.1758-1.0117 2.2695-2.0664 3.3945-3.1133 0.98047-0.91406 1.9961-1.8047 2.9453-2.7422 1.0938-1.0898 2.1016-2.2344 3.1367-3.3594 0.86719-0.94141 1.7812-1.8594 2.6055-2.832 1.0195-1.1953 1.9297-2.4414 2.8711-3.6719 0.73438-0.95703 1.5234-1.8906 2.2148-2.8711 0.93359-1.3281 1.7422-2.707 2.5859-4.0742 0.58203-0.94141 1.2266-1.8555 1.7617-2.8164 0.86719-1.5547 1.5898-3.1719 2.3398-4.7812 0.39063-0.82812 0.84766-1.6328 1.2031-2.4766 1.0312-2.4766 1.9258-5.0156 2.6523-7.6211 0.65234-2.332 1.3906-4.6523 2.207-6.9609 0.26953-0.75781 0.60156-1.5156 0.89453-2.2734 0.58203-1.5391 1.1562-3.0781 1.8164-4.6016 0.39844-0.92188 0.86328-1.832 1.2891-2.7461 0.62109-1.3438 1.2266-2.6953 1.9023-4.0273 0.50781-0.98828 1.082-1.9648 1.6172-2.9492 0.6875-1.25 1.3438-2.5 2.0781-3.7383 0.58594-0.99609 1.2422-1.9727 1.8633-2.9648 0.75781-1.207 1.5039-2.4258 2.3125-3.625 0.67578-0.99609 1.4102-1.9727 2.1172-2.9648 0.83984-1.1758 1.6641-2.3516 2.5508-3.5117 0.75-0.98828 1.5625-1.957 2.3516-2.9336 0.92188-1.1445 1.8242-2.3008 2.793-3.4336 0.79688-0.95312 1.6836-1.9062 2.5391-2.8672zm-64-0.61719c0.6875-0.72656 1.3672-1.4492 2.0781-2.1719h54.453c-0.054687 0.0625-0.10547 0.12891-0.16406 0.19922-0.48438 0.5625-0.92188 1.1289-1.3945 1.6914-1.3164 1.5625-2.6094 3.1367-3.8438 4.7266-0.62109 0.80469-1.2031 1.6172-1.8008 2.4219-1.0195 1.3711-2.0312 2.7422-2.9883 4.1289-0.60547 0.87891-1.1836 1.7617-1.7656 2.6484-0.88281 1.3359-1.7461 2.6836-2.5703 4.0352-0.55859 0.91406-1.0938 1.8242-1.6211 2.7422-0.78516 1.3555-1.5352 2.7188-2.2578 4.0898-0.48437 0.91406-0.96875 1.832-1.4258 2.7461-0.71094 1.4141-1.3711 2.8398-2.0195 4.2734-0.39844 0.88281-0.8125 1.7617-1.1875 2.6484-0.66406 1.5703-1.2695 3.1484-1.8594 4.7266-0.28125 0.75391-0.59766 1.5039-0.85938 2.2578-0.82422 2.3438-1.5781 4.7031-2.2383 7.0742-0.69922 2.5078-1.582 4.9414-2.6133 7.3242-0.35156 0.8125-0.80859 1.5781-1.1992 2.3789-0.75 1.543-1.4844 3.0977-2.3633 4.5938-0.54297 0.92188-1.1836 1.8008-1.7695 2.6992-0.85938 1.3164-1.6914 2.6445-2.6445 3.918-0.69531 0.93359-1.4688 1.8242-2.2109 2.7344-0.96875 1.1875-1.918 2.3828-2.9609 3.5352-0.82422 0.90625-1.7109 1.7812-2.5742 2.668-1.0664 1.0938-2.1211 2.1914-3.2461 3.25-0.93359 0.87891-1.9141 1.7148-2.8828 2.5703-1.1562 1.0117-2.3047 2.0273-3.5039 3.0039-1.0195 0.83203-2.0781 1.6367-3.1289 2.4453-1.2266 0.94141-2.457 1.8828-3.7227 2.7969-1.0859 0.78125-2.1992 1.5391-3.3086 2.293-1.293 0.88281-2.5859 1.7578-3.9062 2.6055-1.1406 0.73047-2.293 1.4453-3.4531 2.1562-1.3359 0.82031-2.6719 1.6289-4.0273 2.4141-1.1797 0.67969-2.3633 1.3516-3.5586 2.0117-1.3555 0.75391-2.7227 1.4961-4.0898 2.2188-1.1992 0.63281-2.4023 1.2578-3.6016 1.8633-1.375 0.69531-2.7461 1.375-4.125 2.043-1.1992 0.58203-2.3906 1.1562-3.5898 1.7109-1.3711 0.64062-2.7383 1.2578-4.0977 1.8711-1.1875 0.53125-2.3711 1.0625-3.5586 1.5703-1.3477 0.58203-2.6797 1.1406-4.0117 1.6914-1.1602 0.47656-2.3125 0.95703-3.4531 1.4141-1.3203 0.52734-2.6211 1.0312-3.9102 1.5352-1.1055 0.42578-2.2148 0.85938-3.2891 1.2617-1.2578 0.46875-2.4805 0.91406-3.6992 1.3516-1.0547 0.37891-2.125 0.76953-3.1523 1.1289-0.27734 0.097656-0.52734 0.17578-0.80469 0.27734v-34.676c1.3672-0.74609 2.5938-1.5234 3.9062-2.2852 1.4414-0.83203 2.9219-1.6562 4.293-2.5117 1.5586-0.96875 2.9961-1.9648 4.4648-2.9531 1.2734-0.85937 2.5938-1.707 3.8047-2.5859 1.4102-1.0273 2.6875-2.0781 4.0039-3.1211 1.1055-0.87891 2.2578-1.7422 3.2969-2.6328 1.2617-1.0859 2.3867-2.207 3.5508-3.3164 0.92578-0.88281 1.9258-1.7578 2.7891-2.6523 1.1211-1.1641 2.0859-2.3594 3.0977-3.5352 0.75-0.88281 1.5742-1.7461 2.2656-2.6406 0.98047-1.2617 1.8047-2.5664 2.668-3.8516 0.5625-0.84375 1.207-1.6719 1.7227-2.5273 0.86719-1.4453 1.5625-2.9258 2.2852-4.3984 0.35547-0.73047 0.80078-1.4414 1.1211-2.1797 0.96875-2.2266 1.7773-4.4805 2.418-6.7695 0.53906-1.9297 1.1562-3.8477 1.8398-5.7578 0.23828-0.66016 0.52734-1.3125 0.78516-1.9688 0.48437-1.2383 0.95312-2.4805 1.4961-3.7148 0.33594-0.75391 0.73047-1.5039 1.0898-2.2539 0.52734-1.1211 1.0469-2.2383 1.6289-3.3438 0.41406-0.78906 0.88672-1.5625 1.332-2.3477 0.59766-1.0547 1.1797-2.1211 1.8242-3.1719 0.48828-0.79297 1.0312-1.5781 1.5508-2.3672 0.66406-1.0195 1.3203-2.043 2.0312-3.0547 0.5625-0.80078 1.1797-1.582 1.7656-2.3711 0.73437-0.98828 1.4609-1.9766 2.2383-2.9531 0.64062-0.80078 1.332-1.5898 1.9961-2.3789 0.80078-0.94531 1.582-1.8984 2.4258-2.8359 0.69922-0.81641 1.4727-1.6133 2.2305-2.418zm-69.934-2.1719h61.82c-1.4219 1.5977-2.7891 3.207-4.0977 4.8359-0.011719 0.015624-0.023437 0.035156-0.039063 0.050781-1.4258 1.7695-2.7734 3.5625-4.0586 5.3672-0.42578 0.59766-0.82031 1.1992-1.2344 1.8008-0.84375 1.2344-1.6719 2.4648-2.457 3.7031-0.44922 0.71484-0.875 1.4336-1.2969 2.1523-0.69141 1.1602-1.3633 2.3203-1.9961 3.4922-0.41016 0.74609-0.80469 1.4961-1.1875 2.25-0.60547 1.1836-1.1797 2.3711-1.7305 3.5664-0.33594 0.73047-0.67969 1.4609-1 2.1953-0.56641 1.3125-1.0859 2.6328-1.5898 3.9609-0.23047 0.61719-0.48828 1.2266-0.70703 1.8438-0.69531 1.9531-1.332 3.918-1.8828 5.8984-0.035157 0.12891-0.097657 0.25-0.13281 0.375-0.53906 1.8555-1.1953 3.6953-1.9844 5.5117-0.29297 0.66406-0.67969 1.3164-1.0117 1.9766-0.62109 1.2695-1.2422 2.5352-1.9961 3.7773-0.45703 0.75781-1.0117 1.5039-1.5156 2.2539-0.75391 1.1289-1.5156 2.2578-2.3711 3.3711-0.60547 0.78125-1.293 1.5508-1.9531 2.3242-0.90234 1.0547-1.8086 2.1133-2.8086 3.1484-0.75 0.78516-1.5703 1.5547-2.3711 2.3281-1.0508 1.0078-2.1211 2.0078-3.2656 2.9961-0.89453 0.76953-1.8242 1.5352-2.7734 2.2891-1.207 0.97266-2.4531 1.9375-3.75 2.8867-1.0156 0.74609-2.0586 1.4844-3.1289 2.2188-1.375 0.94531-2.8086 1.8789-4.2773 2.8086-1.1289 0.71484-2.2695 1.4258-3.457 2.1328-0.5625 0.33203-1.1758 0.65625-1.7461 0.99219l-0.003907-82.508zm21.73 347.32c0.003906-0.078124 0.003906-0.15234 0.011718-0.23047 0.019532-0.47266 0.0625-0.95703 0.097656-1.4336 0.058594-0.91797 0.11328-1.8359 0.20313-2.7773 0.050781-0.55078 0.11719-1.125 0.18359-1.6836 0.09375-0.87891 0.1875-1.75 0.30469-2.6406 0.082031-0.61719 0.1875-1.2422 0.28125-1.8633 0.12891-0.84766 0.26172-1.7031 0.41797-2.5586 0.11328-0.65234 0.25781-1.3008 0.39062-1.957 0.17188-0.84766 0.35156-1.7031 0.54688-2.5547 0.15234-0.66016 0.33203-1.332 0.50391-1.9961 0.21875-0.84766 0.44531-1.7031 0.69531-2.5547 0.19922-0.67578 0.41016-1.3555 0.63281-2.0391 0.26562-0.84375 0.54688-1.6875 0.84766-2.5312 0.24609-0.6875 0.50391-1.3711 0.76953-2.0586 0.32422-0.83984 0.66406-1.6719 1.0273-2.5117 0.29688-0.6875 0.59766-1.3672 0.91406-2.0508 0.38672-0.82812 0.79297-1.6562 1.2148-2.4805 0.34375-0.67969 0.69922-1.3555 1.0664-2.0312 0.44922-0.82031 0.93359-1.6367 1.4219-2.4453 0.39844-0.66016 0.80078-1.3281 1.2227-1.9844 0.52344-0.80859 1.082-1.6133 1.6445-2.4062 0.45312-0.64453 0.90234-1.293 1.3867-1.9297 0.60156-0.80078 1.25-1.5781 1.8984-2.3633 0.50781-0.61719 1.0078-1.2344 1.5391-1.8398 0.69922-0.79297 1.457-1.5625 2.1992-2.3398 0.55078-0.57031 1.0898-1.1484 1.668-1.7148 0.82422-0.79297 1.7109-1.5625 2.5859-2.332 0.58203-0.51172 1.1328-1.0352 1.7422-1.5391 1.0117-0.82812 2.0977-1.6328 3.1836-2.4336 0.55078-0.41016 1.0625-0.83203 1.6328-1.2344 1.6875-1.1836 3.4492-2.3281 5.3086-3.4297 40.555-24 51.34-37.004 60.852-48.477 4.0273-4.8555 7.8242-9.4414 13.684-14.508 1.3633-1.1758 2.8945-2.5156 4.5938-4.0039 8.7305-7.6445 21.672-19.176 36.098-32.059 5.1914-4.6367 10.562-9.4375 16.02-14.312 14.559-13.012 29.305-26.195 41.418-36.945 4.0352-3.582 7.7852-6.8984 11.129-9.8398 10.324-9.0859 20.121-21.949 30.488-35.559 7.2969-9.582 14.688-19.285 22.422-27.902 4.8359-5.3867 9.8086-10.352 14.977-14.594 8.6133-7.0742 17.777-12.145 27.777-13.863 11.848-2.0312 22.77-4.2344 33.332-6.3672 3.5898-0.72656 7.1289-1.4336 10.641-2.1328 0.87891-0.17188 1.7422-0.33594 2.6133-0.50781 2.6406-0.51172 5.2695-1.0195 7.8828-1.5039 1.2383-0.22656 2.4727-0.4375 3.7031-0.65625 2.2383-0.39844 4.4805-0.79297 6.7148-1.1602 1.3906-0.22656 2.7891-0.43359 4.1836-0.64453 1.3711-0.20703 2.7422-0.40625 4.1133-0.59766v81.98c-0.42578-0.023437-0.89453-0.015625-1.3203-0.035156-3.3711-0.16406-6.8164-0.27734-10.418-0.27734-55.484 0-126.93 18.199-166.2 42.336-3.7891 2.3281-7.3516 4.7266-10.711 7.1758-23.512 17.168-37.219 37.227-51.629 58.309-10.828 15.84-22.027 32.223-38.195 48.625-1.5625 1.5898-2.9883 3.2344-4.3008 4.9336-0.44531 0.57813-0.80469 1.1875-1.2227 1.7773-0.8125 1.1445-1.6367 2.2891-2.3438 3.4766-0.43359 0.73047-0.78906 1.4883-1.1875 2.2344-0.58203 1.0898-1.1797 2.1758-1.6875 3.2969-0.36328 0.8125-0.66016 1.6484-0.98828 2.4766-0.42969 1.0938-0.875 2.1797-1.2344 3.2969-0.28516 0.875-0.51172 1.7617-0.75391 2.6484-0.30469 1.1055-0.61719 2.1992-0.85938 3.3242-0.20312 0.92188-0.35547 1.8516-0.51953 2.7812-0.19922 1.1211-0.39062 2.2344-0.53125 3.3633-0.11719 0.95312-0.20703 1.9102-0.29297 2.8711-0.10547 1.1328-0.19141 2.2656-0.24609 3.4102-0.042969 0.97266-0.0625 1.9492-0.074219 2.9297-0.015625 1.1445-0.015625 2.293 0.015625 3.4492 0.023438 0.98047 0.070313 1.9688 0.125 2.9531 0.070313 1.1602 0.14844 2.3242 0.25 3.4883 0.089844 0.98828 0.1875 1.9688 0.30469 2.9609 0.13672 1.1641 0.29688 2.332 0.46484 3.4961 0.14453 0.98828 0.29687 1.9688 0.46484 2.9492 0.20312 1.1641 0.41797 2.3281 0.65234 3.4922 0.19922 0.97656 0.39062 1.9531 0.60156 2.9258 0.25781 1.1602 0.53125 2.3125 0.82031 3.4688 0.23047 0.95703 0.46484 1.918 0.71875 2.8711 0.30469 1.1562 0.63281 2.3008 0.96094 3.4492 0.26953 0.93359 0.52734 1.8633 0.8125 2.7891 0.35156 1.1406 0.71875 2.2578 1.0859 3.3906 0.29688 0.90625 0.58203 1.8164 0.88672 2.707 0.38672 1.1133 0.78516 2.207 1.1797 3.3008 0.31641 0.875 0.62109 1.7578 0.94531 2.6133 0.042968 0.10938 0.082031 0.22656 0.125 0.33594l-105.88-0.007812zm113.83 0c-0.21875-0.55078-0.43359-1.1055-0.65234-1.6641-0.32031-0.82812-0.63672-1.6562-0.94531-2.5-0.37109-0.99219-0.72656-1.9961-1.082-3.0078-0.3125-0.875-0.61719-1.75-0.91406-2.6406-0.33984-1.0156-0.67188-2.043-0.99609-3.0703-0.28516-0.90234-0.57031-1.8047-0.84375-2.7148-0.3125-1.0352-0.60156-2.082-0.89453-3.1289-0.25781-0.92578-0.51172-1.8516-0.75391-2.7773-0.26953-1.0508-0.51953-2.1055-0.76953-3.168-0.22266-0.94141-0.44531-1.8789-0.64453-2.8281-0.22266-1.0508-0.41797-2.1055-0.61719-3.168-0.18359-0.95703-0.36328-1.9141-0.51953-2.8711-0.17188-1.0547-0.3125-2.1172-0.45312-3.1719-0.12891-0.95703-0.26562-1.9102-0.37109-2.8672-0.11328-1.0625-0.1875-2.1172-0.26953-3.1758-0.070312-0.94531-0.15234-1.8945-0.19922-2.8359-0.050782-1.0508-0.042969-2.0977-0.058594-3.1406-0.003906-0.9375-0.035156-1.8789-0.011719-2.8086 0.023437-1.0391 0.10938-2.0703 0.17578-3.1016 0.058594-0.91406 0.097656-1.832 0.19141-2.7344 0.10938-1.0352 0.28516-2.0508 0.4375-3.0781 0.13281-0.87891 0.24219-1.7656 0.41016-2.6328 0.20312-1.0273 0.47656-2.0234 0.73438-3.0273 0.21094-0.83203 0.39062-1.6758 0.63672-2.5 0.3125-1.0156 0.70703-2.0039 1.0742-2.9961 0.29297-0.77344 0.53906-1.5625 0.86328-2.3242 0.4375-1.0156 0.97266-1.9922 1.4805-2.9805 0.35547-0.69531 0.66406-1.4102 1.0625-2.0898 0.62109-1.0742 1.3633-2.1016 2.0781-3.1367 0.37891-0.54297 0.69922-1.1211 1.1055-1.6484 1.1758-1.543 2.4609-3.0391 3.8711-4.4688 16.633-16.871 28.02-33.535 39.035-49.641 16.008-23.426 31.129-45.547 60.105-63.359 37.625-23.125 108.93-41.242 162.33-41.242 2.4023 0 4.7422 0.050782 7.0391 0.125 0.70703 0.023438 1.3945 0.058594 2.0859 0.089844 0.88672 0.039063 1.7422 0.09375 2.6094 0.14453v53.02c-0.24609-0.097657-0.50781-0.17578-0.75781-0.27734-0.75-0.28516-1.5234-0.55078-2.2852-0.82422-1.4414-0.52344-2.8906-1.0391-4.3672-1.5234-0.6875-0.22266-1.3828-0.42578-2.0703-0.63672-1.582-0.48828-3.1836-0.96875-4.8008-1.4102-0.64453-0.17578-1.3008-0.33594-1.9531-0.50781-1.6875-0.43359-3.3906-0.85938-5.1094-1.2422-0.625-0.13672-1.2617-0.26953-1.8945-0.40625-1.7656-0.375-3.543-0.72656-5.3438-1.0469-0.62109-0.10938-1.2539-0.21094-1.8789-0.31641-1.8164-0.30469-3.6445-0.58203-5.4922-0.82812-0.64062-0.089844-1.2812-0.16797-1.9297-0.24609-1.8438-0.22656-3.6953-0.42969-5.5586-0.60156-0.67188-0.058593-1.3477-0.125-2.0234-0.17578-1.8516-0.15234-3.7031-0.27734-5.5742-0.375-0.71094-0.039062-1.4219-0.074219-2.1367-0.10547-1.8359-0.078125-3.6797-0.125-5.5352-0.14844-0.75781-0.011719-1.5234-0.023438-2.2852-0.023438-1.8164-0.003906-3.6367 0.023438-5.4609 0.070313-0.80859 0.019531-1.6172 0.03125-2.4258 0.058593-1.7773 0.0625-3.5625 0.16406-5.3438 0.26953-0.875 0.054687-1.7422 0.097656-2.6094 0.16406-1.7305 0.125-3.4688 0.29297-5.2031 0.46484-0.92188 0.089844-1.8438 0.16797-2.7656 0.26953-1.6953 0.1875-3.3945 0.41406-5.0977 0.64453-0.96094 0.12891-1.9258 0.24219-2.8867 0.38672-1.6914 0.25-3.3906 0.54688-5.082 0.83984-0.96094 0.16797-1.918 0.3125-2.875 0.49219-1.7969 0.33594-3.5898 0.71875-5.3828 1.1016-0.84766 0.18359-1.6953 0.33594-2.5469 0.52734-2.6328 0.59375-5.2578 1.2344-7.8789 1.9258-25.559 6.75-48.449 17.566-67.391 30.961-3.7891 2.6797-7.418 5.4609-10.883 8.332-3.4648 2.875-6.7578 5.8398-9.8711 8.8789-21.809 21.305-34.879 46.496-35.688 71.492-0.23047 7.1445 0.53906 14.266 2.3906 21.281 0 0.011719 0.003906 0.019532 0.011719 0.03125 0.625 2.3711 1.4102 4.6914 2.2695 6.9766 0.17188 0.45312 0.33594 0.91406 0.51172 1.3672 0.875 2.1953 1.8516 4.3477 2.9297 6.4531 0.21094 0.41797 0.44922 0.82812 0.67188 1.2422 1.1055 2.0586 2.2852 4.0742 3.582 6.0391 0.09375 0.13672 0.16797 0.28125 0.26172 0.41406 1.3672 2.0391 2.8672 4.0117 4.4336 5.9453 0.33203 0.40625 0.65625 0.80859 0.99219 1.2148 1.5781 1.8633 3.2422 3.6914 5.0117 5.4492 0.32031 0.32031 0.66016 0.63281 0.99219 0.95312 1.7305 1.6719 3.5352 3.3047 5.4375 4.875 0.20703 0.17188 0.40625 0.35156 0.61328 0.51953 2.0312 1.6523 4.1836 3.2266 6.3984 4.75 0.45703 0.32031 0.92187 0.63672 1.3945 0.94531 2.2344 1.4883 4.543 2.9258 6.957 4.2852 0.11719 0.0625 0.22266 0.14453 0.33984 0.20703l-81.141-0.007812zm98.344 0c-0.85938-0.34375-1.6914-0.71094-2.5352-1.0703-0.76953-0.33203-1.5547-0.65234-2.3086-0.99219-0.92188-0.41406-1.8047-0.85937-2.7031-1.293-0.74609-0.35938-1.5039-0.71094-2.2305-1.082-0.88281-0.44922-1.7305-0.92578-2.5898-1.3945-0.70703-0.38672-1.4297-0.75781-2.1211-1.1562-0.83984-0.47656-1.6445-0.98828-2.4609-1.4844-0.67188-0.41016-1.3633-0.8125-2.0195-1.2344-0.79297-0.50781-1.5508-1.0391-2.3203-1.5625-0.64062-0.4375-1.3008-0.86328-1.9297-1.3164-0.75391-0.54297-1.4766-1.1094-2.207-1.668-0.59766-0.45703-1.2148-0.90234-1.7891-1.3672-0.71875-0.58203-1.4062-1.1836-2.1055-1.7812-0.54688-0.46875-1.1133-0.92578-1.6484-1.4062-0.67969-0.61719-1.3203-1.25-1.9766-1.8789-0.50781-0.48828-1.0312-0.96094-1.5234-1.4609-0.64062-0.64453-1.2383-1.3164-1.8516-1.9766-0.46484-0.50391-0.94531-0.99219-1.3945-1.5039-0.59766-0.67969-1.1484-1.3828-1.7148-2.0703-0.41797-0.51172-0.86328-1.0195-1.2695-1.543-0.5625-0.72656-1.0742-1.4688-1.6094-2.2109-0.36328-0.51172-0.75391-1.0156-1.1094-1.5391-0.52344-0.77344-1-1.5703-1.4883-2.3594-0.31641-0.51172-0.65625-1.0078-0.95703-1.5234-0.46875-0.80078-0.88672-1.6172-1.3203-2.4336-0.28125-0.52344-0.58594-1.0391-0.85156-1.5742-0.44531-0.89453-0.83984-1.8047-1.2422-2.7148-0.20703-0.46875-0.44531-0.92578-0.64062-1.3945-0.42969-1.0273-0.80469-2.0781-1.1836-3.1211-0.13281-0.375-0.29297-0.73438-0.41797-1.1094-0.48438-1.4297-0.92188-2.875-1.3086-4.3359-13.777-52.168 38.336-111.34 116.17-131.9 2.5547-0.67578 5.1172-1.2969 7.6797-1.875 0.92578-0.20703 1.8516-0.375 2.7773-0.57031 1.6445-0.34375 3.2852-0.70703 4.9297-1.0117 1.0508-0.19922 2.1055-0.35156 3.1641-0.52734 1.5234-0.26172 3.0469-0.53125 4.5781-0.75781 1.0312-0.15234 2.0625-0.26562 3.0938-0.40625 1.543-0.20703 3.0938-0.41797 4.6367-0.59375 0.99219-0.10938 1.9766-0.18359 2.9688-0.27734 1.582-0.15234 3.1719-0.3125 4.75-0.42578 0.92578-0.070313 1.8516-0.10547 2.7773-0.15625 1.6367-0.097657 3.2695-0.19922 4.8984-0.25 0.88281-0.03125 1.7617-0.03125 2.6445-0.050781 1.6523-0.035157 3.3086-0.074219 4.9531-0.070313 0.85156 0.003906 1.7031 0.035156 2.5547 0.050781 1.6562 0.03125 3.3203 0.058594 4.9688 0.12891 0.82422 0.035157 1.6445 0.097657 2.4648 0.14453 1.6523 0.09375 3.3008 0.1875 4.9375 0.32031 0.8125 0.070313 1.6133 0.15625 2.4219 0.23828 1.6289 0.15625 3.25 0.31641 4.8594 0.51953 0.80469 0.10547 1.5977 0.22266 2.3984 0.33594 1.582 0.21875 3.1641 0.44531 4.7227 0.70703 0.8125 0.13672 1.6172 0.29687 2.4258 0.44531 1.5195 0.27734 3.0273 0.5625 4.5234 0.87891 0.83203 0.17578 1.6562 0.375 2.4844 0.56641 1.4297 0.33203 2.8555 0.66406 4.2617 1.0312 0.86719 0.22656 1.7227 0.47266 2.5781 0.71484 1.3281 0.37109 2.6523 0.75 3.957 1.1562 0.90625 0.28516 1.7969 0.58594 2.6875 0.88672 1.2148 0.41016 2.4258 0.82031 3.6172 1.2539 0.94531 0.35156 1.8789 0.71875 2.8125 1.0898 0.71875 0.28516 1.4336 0.57812 2.1445 0.875v155.22c-2.082 1.4609-4.2539 2.832-6.4062 4.2148-1.668 1.0703-3.2812 2.1992-4.9961 3.2227-2.7539 1.6445-5.6328 3.1406-8.4961 4.6602-1.4883 0.78906-2.9141 1.6484-4.4336 2.4062-4.0742 2.0273-8.2734 3.9062-12.547 5.6836-0.38672 0.16406-0.74609 0.35547-1.1289 0.51172-4.6016 1.8789-9.3281 3.6016-14.145 5.1836l-125.86-0.011719zm178.01 0h-31.25c3.3242-1.4414 6.5742-2.9766 9.7773-4.5586 0.67188-0.33203 1.3203-0.67578 1.9883-1.0156 4.2148-2.1406 8.3438-4.3789 12.332-6.7734 0.20312-0.11719 0.39453-0.25 0.59766-0.375 2.2148-1.3359 4.4102-2.7031 6.5547-4.125zm0-347.32v8.2266c-1.5234 0.21094-3.0352 0.46484-4.5547 0.69531-1.543 0.23047-3.0977 0.45703-4.6367 0.71094-2.0859 0.33984-4.1797 0.71094-6.2695 1.082-1.4766 0.26172-2.9492 0.50781-4.4258 0.78125-2.2305 0.41406-4.4805 0.84766-6.7227 1.2891-1.3555 0.26172-2.7031 0.51172-4.0703 0.78516-3.5117 0.69531-7.0547 1.4062-10.645 2.1328-10.512 2.1211-21.379 4.3164-33.121 6.3242-28.469 4.8828-49.488 32.48-69.812 59.172-10.137 13.309-19.719 25.883-29.492 34.488-13.402 11.797-33.164 29.461-52.594 46.824-23.539 21.043-45.785 40.926-56.617 50.293-6.3203 5.4727-10.316 10.285-14.539 15.383-9.125 11.004-19.473 23.488-58.922 46.832-2.043 1.207-3.9844 2.4648-5.8359 3.7695-0.64062 0.44531-1.2148 0.92188-1.832 1.3828-1.1758 0.86719-2.3594 1.7383-3.457 2.6406-0.67969 0.5625-1.3008 1.1484-1.9531 1.7227-0.94531 0.83203-1.9102 1.6641-2.7969 2.5156-0.65625 0.63281-1.2539 1.2812-1.875 1.9258-0.80469 0.83203-1.6211 1.6641-2.3711 2.5117-0.60156 0.67578-1.1562 1.3711-1.7266 2.0586-0.69531 0.84375-1.4023 1.6836-2.0508 2.5391-0.54297 0.71484-1.0391 1.4336-1.5508 2.1602-0.60547 0.85156-1.207 1.7109-1.7695 2.5742-0.48437 0.73828-0.92578 1.4883-1.375 2.2383-0.51953 0.86328-1.0352 1.7305-1.5195 2.6055-0.41797 0.75781-0.8125 1.5234-1.1992 2.2891-0.44922 0.87891-0.88672 1.75-1.2969 2.6328-0.35938 0.76953-0.69531 1.543-1.0273 2.3125-0.37891 0.88672-0.74609 1.7695-1.0898 2.6602-0.30469 0.78125-0.59375 1.5547-0.86719 2.332-0.31641 0.88672-0.61719 1.7695-0.90234 2.6602-0.26562 0.76953-0.5 1.543-0.72656 2.3203-0.26172 0.89453-0.50391 1.7773-0.73047 2.668-0.20313 0.76953-0.39453 1.5352-0.57813 2.3008-0.20703 0.88672-0.39453 1.7695-0.57812 2.6523-0.15234 0.75391-0.3125 1.5078-0.44531 2.2578-0.15625 0.88281-0.29688 1.75-0.42969 2.625-0.11328 0.73828-0.23047 1.4844-0.33203 2.2148-0.11328 0.85938-0.20703 1.707-0.30078 2.5547-0.078125 0.73047-0.16406 1.457-0.22656 2.1758-0.074218 0.83203-0.125 1.6445-0.18359 2.4648-0.042969 0.71484-0.10547 1.4297-0.13281 2.1328-0.003906 0.13281-0.019531 0.26953-0.023437 0.40625h-14.312v-99.531c0.51172-0.13672 1.082-0.30078 1.6016-0.44531 0.90625-0.24609 1.8203-0.5 2.7578-0.75781 1.0938-0.30469 2.207-0.61719 3.3398-0.9375 0.97656-0.27734 1.957-0.55859 2.9688-0.84766 1.1484-0.33203 2.3203-0.67578 3.5039-1.0273 1.0664-0.3125 2.1328-0.625 3.2227-0.95312 1.207-0.35938 2.4336-0.73047 3.6719-1.1133 1.1211-0.33984 2.2461-0.6875 3.3906-1.0391 1.2578-0.39453 2.5352-0.79297 3.8242-1.2031 1.1797-0.375 2.3633-0.75391 3.5703-1.1445 1.293-0.41406 2.6016-0.84766 3.918-1.2812 1.2539-0.41016 2.5078-0.82812 3.7773-1.2578 1.3164-0.44531 2.6445-0.90234 3.9766-1.3555 1.3125-0.45313 2.625-0.90625 3.9531-1.3711 1.3477-0.47266 2.707-0.96094 4.0703-1.4492 1.3438-0.48438 2.6836-0.96875 4.0469-1.4648 1.3906-0.50781 2.7891-1.0312 4.1914-1.5586 1.3711-0.51172 2.7383-1.0273 4.1211-1.5586 1.4102-0.53906 2.832-1.1016 4.2539-1.6523 1.3945-0.54688 2.7891-1.0938 4.1914-1.6562 1.4414-0.57812 2.8906-1.1758 4.3398-1.7656 1.4023-0.57812 2.7969-1.1484 4.207-1.7422 1.4648-0.61719 2.9336-1.25 4.4102-1.8828 1.4102-0.60547 2.8203-1.2148 4.2383-1.8398 1.4609-0.64453 2.9219-1.3086 4.3867-1.9688 1.4297-0.64453 2.8594-1.293 4.293-1.9531 1.4648-0.6875 2.9336-1.3867 4.3984-2.082 1.4258-0.67969 2.8516-1.3555 4.2773-2.0508 1.4648-0.71875 2.9219-1.457 4.3867-2.1914 1.4219-0.71484 2.8398-1.4258 4.2578-2.1602 1.4609-0.75391 2.9102-1.5273 4.3672-2.3047 1.4062-0.74609 2.8125-1.4883 4.207-2.2539 1.4453-0.78906 2.8828-1.6094 4.3164-2.418 1.3906-0.78516 2.7773-1.5586 4.1602-2.3633 1.4258-0.82813 2.8359-1.6836 4.2539-2.5312 1.3633-0.82031 2.7266-1.6289 4.0781-2.4609 1.4062-0.86719 2.7891-1.7617 4.1797-2.6484 1.332-0.84766 2.668-1.6914 3.9844-2.5664 1.3828-0.91406 2.7344-1.8516 4.0938-2.7773 1.2891-0.88281 2.5781-1.75 3.8516-2.6523 1.3477-0.95312 2.6641-1.9375 3.9922-2.9102 1.2422-0.91797 2.4961-1.8203 3.7188-2.7539 1.3086-0.99609 2.5742-2.0234 3.8633-3.0391 1.1875-0.94531 2.3906-1.8789 3.5625-2.8477 1.2578-1.0391 2.4766-2.1133 3.7031-3.1719 1.1406-0.98047 2.293-1.9531 3.4023-2.9492 1.207-1.082 2.3633-2.1953 3.5352-3.3008 1.0742-1.0117 2.1719-2.0117 3.2227-3.043 1.1562-1.1328 2.2539-2.3086 3.375-3.4648 1-1.0352 2.0273-2.0625 3-3.1172 1.0938-1.1875 2.125-2.418 3.1836-3.625 0.92578-1.0625 1.8789-2.1133 2.7734-3.1914 1.0312-1.25 1.9922-2.5352 2.9805-3.8086 0.83984-1.0859 1.7109-2.1523 2.5156-3.25 0.96094-1.3164 1.8516-2.668 2.7578-4.0117 0.75-1.1016 1.5352-2.1758 2.2461-3.2891 0.89844-1.4062 1.707-2.8477 2.5508-4.2773 0.63672-1.0898 1.3203-2.1602 1.9258-3.2617 0.83984-1.5352 1.582-3.1133 2.3594-4.6758 0.51172-1.0391 1.0742-2.0586 1.5547-3.1133 0.79297-1.7422 1.4805-3.5273 2.1914-5.3047 0.36328-0.91797 0.78516-1.8086 1.125-2.7383 1-2.7188 1.8945-5.4805 2.6797-8.2812 1.1836-4.2461 2.5312-8.4688 4.0273-12.668 0.51953-1.457 1.1602-2.8867 1.7148-4.3359 1.0508-2.7344 2.0625-5.4648 3.2461-8.1758 0.73438-1.6836 1.6016-3.3438 2.3867-5.0234 1.1445-2.4414 2.2461-4.8945 3.4961-7.3125 0.92578-1.7812 1.9766-3.5352 2.9648-5.3047 1.2695-2.2852 2.4805-4.582 3.8477-6.8477 1.0898-1.8086 2.3086-3.5898 3.4648-5.3828 1.4102-2.1953 2.7617-4.3984 4.2617-6.5742 1.2422-1.8008 2.6133-3.5781 3.9219-5.3633 1.5586-2.1367 3.0703-4.2812 4.7148-6.3945 1.3906-1.7812 2.9062-3.5312 4.3555-5.2969 1.7148-2.082 3.3789-4.1797 5.1797-6.2422 1.5273-1.7461 3.1836-3.4688 4.7695-5.1992 1.7031-1.8555 3.3711-3.7148 5.1406-5.5508h131.17z"/>
  <path d="m556.8 482.93c12.309-14.133 16.957-29.973 13.086-44.609-5.9531-22.543-30.727-37.105-63.113-37.105-9.4648 0-19.121 1.2812-28.691 3.8086-20.48 5.4102-38.352 15.949-50.309 29.684-12.309 14.133-16.957 29.973-13.086 44.609 1.5742 5.9531 4.4922 11.332 8.4844 16.051 1.3906 1.6445 2.9141 3.2031 4.5625 4.6797 11.543 10.32 29.215 16.375 50.062 16.375h0.003906c9.4648 0 19.121-1.2812 28.691-3.8125 20.488-5.4062 38.352-15.949 50.309-29.68zm-52.195 22.527c-8.9531 2.3633-17.977 3.5664-26.812 3.5664-28.473 0-50.965-12.703-55.957-31.598-3.2227-12.191 0.86719-25.637 11.516-37.863 10.996-12.629 27.547-22.352 46.613-27.391 8.9531-2.3633 17.973-3.5664 26.809-3.5664 28.48 0 50.969 12.699 55.961 31.598 3.2227 12.191-0.86719 25.637-11.516 37.863-10.996 12.629-27.547 22.352-46.613 27.391z"/>
  <path d="m500.69 423.82c-5.6289 0-11.367 0.75781-17.051 2.2578-12.184 3.2148-22.832 9.5078-29.973 17.711-7.4922 8.6016-10.305 18.301-7.9219 27.309 3.6406 13.781 18.609 22.691 38.129 22.691 4.2227 0 8.5039-0.42969 12.781-1.2773 1.4258-0.28125 2.8477-0.61328 4.2656-0.98828 12.184-3.2148 22.832-9.5078 29.973-17.703 7.4922-8.6016 10.305-18.297 7.9219-27.309-3.6328-13.781-18.602-22.691-38.125-22.691zm24.629 45.137c-6.1758 7.0938-15.512 12.57-26.285 15.418-5.0664 1.3359-10.168 2.0195-15.16 2.0195-15.812 0-28.262-6.9062-30.977-17.184-1.7383-6.5664 0.52344-13.867 6.3555-20.555 6.1758-7.0938 15.516-12.57 26.277-15.418 5.0664-1.3359 10.168-2.0195 15.16-2.0195 15.816 0 28.262 6.9062 30.98 17.184 1.7344 6.5586-0.51953 13.867-6.3516 20.555z"/>
 </g>
</svg>
