<svg height='300px' width='300px'  fill="#2cc0de" xmlns="http://www.w3.org/2000/svg" xmlns:xlink="http://www.w3.org/1999/xlink" version="1.1" x="0px" y="0px" viewBox="0 0 32 32" style="enable-background:new 0 0 32 32;" xml:space="preserve"><g><path d="M16,21.793c-0.553,0-1-0.44-1-0.993c0-2.447,1.078-4.784,3.036-6.597c0.783-0.724,1.117-1.793,0.896-2.859   c-0.235-1.126-1.149-2.04-2.274-2.275c-0.922-0.189-1.832,0.02-2.548,0.603C13.404,10.244,13,11.093,13,12c0,0.553-0.447,1-1,1   s-1-0.447-1-1c0-1.512,0.674-2.927,1.848-3.881c1.174-0.955,2.715-1.324,4.218-1.008c1.893,0.395,3.429,1.932,3.823,3.824   c0.367,1.761-0.191,3.531-1.494,4.735C17.851,17.1,17,18.916,17,20.785C17,21.338,16.553,21.793,16,21.793z"></path><circle cx="16.004" cy="23.997" r="1"></circle><path d="M16,30C8.28,30,2,23.72,2,16S8.28,2,16,2s14,6.28,14,14S23.72,30,16,30z M16,4C9.383,4,4,9.383,4,16s5.383,12,12,12   s12-5.383,12-12S22.617,4,16,4z"></path></g></svg>