<svg xmlns="http://www.w3.org/2000/svg" xmlns:xlink="http://www.w3.org/1999/xlink" width="1200" height="1200" viewBox="0 0 1200 1200"><rect width="100%" height="100%" fill="#0080FF" rx="60" ry="60"></rect><g transform="translate(600 600) scale(0.69 0.69) rotate(0) translate(-600 -600)" style="fill:#FFFFFF"><svg fill="#FFFFFF" xmlns="http://www.w3.org/2000/svg" xmlns:xlink="http://www.w3.org/1999/xlink" viewBox="0 0 54 60" version="1.1" x="0px" y="0px"><title>024 - leak detection</title><desc>Created with Sketch.</desc><g stroke="none" stroke-width="1" fill="none" fill-rule="evenodd"><g fill="#FFFFFF" fill-rule="nonzero"><path d="M53,39 L50,39 C50,37.8954305 49.1045695,37 48,37 L45.722,37 C45.3675874,36.3832487 44.7113268,36.002145 44,36 L38,36 C37.2886732,36.002145 36.6324126,36.3832487 36.278,37 L34,37 C32.8954305,37 32,37.8954305 32,39 L19.5,39 C18.6715729,39 18,38.3284271 18,37.5 L18,22 C19.1045695,22 20,21.1045695 20,20 L20,17.721 C20.6167434,17.3670684 20.99791,16.7110806 21,16 L21,10 C20.9980608,9.28861748 20.6169017,8.63226146 20,8.278 L20,6 C20,4.8954305 19.1045695,4 18,4 L18,1 C18,0.44771525 17.5522847,3.38176876e-17 17,0 L4,0 C3.44771525,-3.38176876e-17 3,0.44771525 3,1 L3,4 C1.8954305,4 1,4.8954305 1,6 L1,8.278 C0.383098326,8.63226146 0.00193919621,9.28861748 0,10 L0,16 C0.00208995484,16.7110806 0.383256573,17.3670684 1,17.721 L1,20 C1,21.1045695 1.8954305,22 3,22 L3,37.5 C3.0018111,41.5604256 4.50810967,45.4761606 7.228,48.491 C7.233,48.499 7.234,48.508 7.239,48.516 C7.27792129,48.5625897 7.32110883,48.6054424 7.368,48.644 C8.91891722,50.338219 10.8056283,51.6909295 12.908,52.616 L12.934,52.628 C15.0046413,53.5332121 17.2401406,54.0003314 19.5,54 L32,54 C32,55.1045695 32.8954305,56 34,56 L36.278,56 C36.6334644,56.6157032 37.2890622,56.996422 38,57 L44,57 C44.7109378,56.996422 45.3665356,56.6157032 45.722,56 L48,56 C49.1045695,56 50,55.1045695 50,54 L53,54 C53.5522847,54 54,53.5522847 54,53 L54,40 C54,39.4477153 53.5522847,39 53,39 Z M3,20 L3,18 L18,18 L18,20 L3,20 Z M2,10 L19,10 L19,16 L2,16 L2,10 Z M5,2 L16,2 L16,4 L5,4 L5,2 Z M18,6 L18,8 L3,8 L3,6 L18,6 Z M4.99999746,22 L16,22 L16,37.5 C16.0046242,37.8188595 16.0534218,38.1355393 16.145,38.441 L14.439,40.147 L9.628,42.071 C9.13635843,42.2677618 8.88334778,42.813686 9.051,43.316 L9.81,45.592 L8.253,46.634 C6.14731011,44.0558366 4.99802413,40.8287914 5,37.5 L4.99999746,22 Z M9.647,48.107 L11.556,46.831 C11.9307231,46.5806116 12.0916566,46.1105053 11.949,45.683 L11.249,43.583 L14,42.477 L14,46 C14.0000566,46.2651948 14.1054506,46.5195073 14.293,46.707 L15.586,48 L13.1,50.489 C11.8401901,49.8656091 10.6771535,49.0633059 9.647,48.107 Z M19.5,52 C18.0066402,51.9998022 16.5223409,51.7680491 15.1,51.313 L17.706,48.707 C17.893777,48.5194317 17.9992867,48.2649092 17.9992867,47.9995 C17.9992867,47.7340908 17.893777,47.4795683 17.706,47.292 L16,45.585 L16,41.414 L17.253,40.16 C17.8782287,40.6983812 18.6749238,40.9962111 19.5,41 L32,41 L32,52 L19.5,52 Z M34,39 L36,39 L36,54 L34,54 L34,39 Z M38,55 L38,38 L44,38 L44,55 L38,55 Z M48,54 L46,54 L46,39 L48,39 L48,54 Z M52,52 L50,52 L50,41 L52,41 L52,52 Z"></path><path d="M6.115,60 C7.86632077,59.9682596 9.39327516,58.8007555 9.883,57.119 C10.1151496,56.2301493 9.97695413,55.2851521 9.5,54.5 C9.356,54.238 9.19,53.982 9.02,53.724 L6.89,50.481 C6.69328032,50.1810022 6.35874399,50.0002023 6,50 L5.4,50.029 L2.77,54.035 C2.57651207,54.3050076 2.41067716,54.5937948 2.275,54.897 C2.09312479,55.3287276 1.99961689,55.7925268 2,56.261 C2.0037712,57.239388 2.40559954,58.1740992 3.113,58.85 C3.89030254,59.5924147 4.92512444,60.0046229 6,60 L6.115,60 Z M4,56.261 C4.00044796,56.0580945 4.0408853,55.857267 4.119,55.67 C4.20666743,55.4887445 4.31041647,55.3157178 4.429,55.153 L6,52.764 L7.351,54.821 C7.491,55.033 7.63,55.243 7.751,55.458 C7.97998044,55.7889986 8.05472223,56.2028129 7.956,56.593 C7.70103166,57.4262481 6.93337772,57.9965169 6.062,58 C5.48788878,58.0162846 4.93017162,57.8074098 4.508,57.418 C4.18865188,57.1172663 4.00528164,56.6996298 4,56.261 Z"></path><path d="M44,0 C38.4771525,-3.38176876e-16 34,4.4771525 34,10 C34,15.5228475 38.4771525,20 44,20 C49.5228475,20 54,15.5228475 54,10 C53.9939376,4.47966557 49.5203344,0.00606237045 44,0 Z M44,18 C39.581722,18 36,14.418278 36,10 C36,5.581722 39.581722,2 44,2 C48.418278,2 52,5.581722 52,10 C51.9950401,14.4162219 48.4162219,17.9950401 44,18 Z"></path><path d="M44,4 C43.4477153,4 43,4.44771525 43,5 L43,11 C43,11.5522847 43.4477153,12 44,12 C44.5522847,12 45,11.5522847 45,11 L45,5 C45,4.44771525 44.5522847,4 44,4 Z"></path><path d="M44,13 C43.4477153,13 43,13.4477153 43,14 L43,15 C43,15.5522847 43.4477153,16 44,16 C44.5522847,16 45,15.5522847 45,15 L45,14 C45,13.4477153 44.5522847,13 44,13 Z"></path></g></g></svg></g></svg>