<svg xmlns="http://www.w3.org/2000/svg" xmlns:xlink="http://www.w3.org/1999/xlink" width="1200" height="1200" viewBox="0 0 1200 1200"><rect width="100%" height="100%" fill="#666666" rx="60" ry="60"></rect><g transform="translate(600 600) scale(0.69 0.69) rotate(0) translate(-600 -600)" style="fill:#FFFFFF"><svg fill="#FFFFFF" xmlns="http://www.w3.org/2000/svg" xmlns:xlink="http://www.w3.org/1999/xlink" version="1.1" x="0px" y="0px" viewBox="0 0 100 100" enable-background="new 0 0 100 100" xml:space="preserve"><g><path fill="#FFFFFF" d="M25.5,67l9.5-9.5c-0.9-2.1-1.5-4.4-1.5-6.8c0-9,7.2-16.2,16.2-16.2c2.4,0,4.8,0.5,6.8,1.5   l6.8-6.8c-1.8-0.6-3.6-1.1-5.4-1.5c-5.1-1.1-10.3-1.1-15.4-0.2c-4.7,0.8-9.2,2.6-13.4,4.7c-6.6,3.4-12.6,8-17.9,13.3   c-0.9,0.9-2,2-2.8,3c-1.1,1.4-1.1,3,0,4.5c2.7,3.2,5.9,6,9.1,8.6C20.1,63.5,22.7,65.4,25.5,67z"></path><path fill="#FFFFFF" d="M91.9,50.5c0-0.1,0-0.1,0-0.1v-0.1v-0.1v-0.1l0,0c-0.1-0.7-0.4-1.3-0.9-1.8   c-2.7-3.2-5.9-6-9.1-8.6c-2.5-2-5.1-3.9-7.8-5.5l-9.5,9.5c0.9,2.1,1.5,4.4,1.5,6.8c0,9-7.2,16.2-16.2,16.2c-2.4,0-4.8-0.5-6.8-1.5   l-6.8,6.8c1.8,0.6,3.5,1.1,5.3,1.5c5.1,1.1,10.3,1.1,15.4,0.2c4.7-0.8,9.2-2.6,13.4-4.7C77,65.7,83,61,88.3,55.8c0.9-0.9,2-2,2.8-3   c0.5-0.5,0.8-1.1,0.9-1.8l0,0V51V51v-0.1c0,0,0-0.1,0-0.1c0-0.1,0-0.1,0-0.1C91.9,50.6,91.9,50.5,91.9,50.5z"></path></g><g><path fill="#FFFFFF" d="M53.7,38.9c-1.2-0.4-2.6-0.6-3.9-0.6c-6.8,0-12.4,5.5-12.4,12.4c0,1.4,0.2,2.7,0.6,3.9   L53.7,38.9z"></path><path fill="#FFFFFF" d="M45.9,62.4c1.2,0.4,2.6,0.6,3.9,0.6c6.8,0,12.4-5.5,12.4-12.4c0-1.4-0.2-2.7-0.6-3.9   L45.9,62.4z"></path></g><path fill="#FFFFFF" d="M79.6,24.6L23.7,80.5c-1,1-2.8,1-3.8,0l0,0c-1-1-1-2.8,0-3.8l55.9-55.9c1-1,2.8-1,3.8,0l0,0  C80.7,21.8,80.7,23.6,79.6,24.6z"></path></svg></g></svg>