<svg xmlns="http://www.w3.org/2000/svg" xmlns:xlink="http://www.w3.org/1999/xlink" width="1200" height="1200" viewBox="0 0 1200 1200"><rect width="100%" height="100%" fill="#CC0000" rx="60" ry="60"></rect><g transform="translate(600 600) scale(0.69 0.69) rotate(0) translate(-600 -600)" style="fill:#FFFFFF"><svg fill="#FFFFFF" xmlns="http://www.w3.org/2000/svg" viewBox="0 0 48 48" x="0px" y="0px"><title>remove</title><g><path d="M9,15a3,3,0,1,0,3-3A3,3,0,0,0,9,15Zm4,0a1,1,0,1,1-1-1A1,1,0,0,1,13,15Z"></path><path d="M36,13a8,8,0,1,0,8,8A8,8,0,0,0,36,13Zm0,14a6,6,0,1,1,6-6A6,6,0,0,1,36,27Z"></path><path d="M36,30a1,1,0,0,0-1,1v3H6V30.52l10.41-7.38a.86.86,0,0,1,1,0l10,7.63a1,1,0,1,0,1.22-1.58l-10-7.64a2.84,2.84,0,0,0-3.33-.06L6,28.07V10A1,1,0,0,1,7,9H34a1,1,0,0,1,1,1v1a1,1,0,0,0,2,0V10a3,3,0,0,0-3-3H7a3,3,0,0,0-3,3V38a3,3,0,0,0,3,3H34a3,3,0,0,0,3-3V31A1,1,0,0,0,36,30Zm-1,8a1,1,0,0,1-1,1H7a1,1,0,0,1-1-1V36H35Z"></path><path d="M38.71,18.29a1,1,0,0,0-1.42,0L36,19.59l-1.29-1.3a1,1,0,0,0-1.42,1.42L34.59,21l-1.3,1.29a1,1,0,0,0,0,1.42,1,1,0,0,0,1.42,0L36,22.41l1.29,1.3a1,1,0,0,0,1.42,0,1,1,0,0,0,0-1.42L37.41,21l1.3-1.29A1,1,0,0,0,38.71,18.29Z"></path></g></svg></g></svg>