<svg xmlns="http://www.w3.org/2000/svg" xmlns:xlink="http://www.w3.org/1999/xlink" width="1200" height="1200" viewBox="0 0 1200 1200"><rect width="100%" height="100%" fill="#0080FF" rx="60" ry="60"></rect><g transform="translate(600 600) scale(0.69 0.69) rotate(0) translate(-600 -600)" style="fill:#FFFFFF"><svg fill="#FFFFFF" xmlns="http://www.w3.org/2000/svg" xmlns:xlink="http://www.w3.org/1999/xlink" version="1.1" x="0px" y="0px" viewBox="0 0 100 100" style="enable-background:new 0 0 100 100;" xml:space="preserve"><g><path d="M32.8,43.363L11.471,31.596l3.05-5.525l21.328,11.768L32.8,43.363z M47.174,28.613L35.345,7.318l-5.517,3.064   l11.828,21.295L47.174,28.613z M53.835,3.836L53.835,3.836L53.835,3.836C53.818,3.836,53.853,3.836,53.835,3.836v24.359h6.364   V17.06c22.467,4.794,27.178,23.981,27.178,32.941c0,12.157-9.75,33.541-33.542,33.541c-8.958,0-17.382-3.49-23.716-9.825   c-2.008-2.006-3.727-4.225-5.143-6.6l12.55-3.367L13.73,50.021L0,73.816l12.451-3.34c7.546,15.222,23.243,25.688,41.384,25.688   C79.332,96.164,100,75.496,100,50.001C100,24.523,79.307,3.865,53.835,3.836z"></path></g></svg></g></svg>