<svg xmlns="http://www.w3.org/2000/svg" xmlns:xlink="http://www.w3.org/1999/xlink" width="1200" height="1200" viewBox="0 0 1200 1200"><rect width="100%" height="100%" fill="#2cc0de" rx="60" ry="60"></rect><g transform="translate(600 600) scale(0.69 0.69) rotate(0) translate(-600 -600)" style="fill:#ffffff"><svg fill="#ffffff" xmlns="http://www.w3.org/2000/svg" xmlns:xlink="http://www.w3.org/1999/xlink" version="1.1" x="0px" y="0px" viewBox="0 0 66 66" enable-background="new 0 0 66 66" xml:space="preserve"><g><g><path d="M2.7,3.5C2.4,3.2,2,3.2,1.6,3.3C1.2,3.5,1,3.8,1,4.2v59.5c0,0.6,0.4,1,1,1h61.3c0.4,0,0.8-0.2,0.9-0.6    c0.2-0.4,0.1-0.8-0.2-1.1L2.7,3.5z M53.1,62.7v-2.2c0-0.6-0.4-1-1-1c-0.6,0-1,0.4-1,1v2.2h-5.5v-2.2c0-0.6-0.4-1-1-1    c-0.6,0-1,0.4-1,1v2.2h-5.5v-4.8c0-0.6-0.4-1-1-1c-0.6,0-1,0.4-1,1v4.8h-7.6v-2.2c0-0.6-0.4-1-1-1c-0.6,0-1,0.4-1,1v2.2h-6.3v-2.2    c0-0.6-0.4-1-1-1s-1,0.4-1,1v2.2H12v-4.8c0-0.6-0.4-1-1-1c-0.6,0-1,0.4-1,1v4.8H3v-3.8h2c0.6,0,1-0.4,1-1c0-0.6-0.4-1-1-1H3v-6.8    h2c0.6,0,1-0.4,1-1c0-0.6-0.4-1-1-1H3v-6.8h3.7c0.6,0,1-0.4,1-1c0-0.6-0.4-1-1-1H3v-5.6h2c0.6,0,1-0.4,1-1c0-0.6-0.4-1-1-1H3V25h2    c0.6,0,1-0.4,1-1c0-0.6-0.4-1-1-1H3v-6.8h3.7c0.6,0,1-0.4,1-1c0-0.6-0.4-1-1-1H3V6.6l57.8,56.1H53.1z"></path></g><g><path d="M12.2,54.5h25.9c0.4,0,0.8-0.2,0.9-0.6c0.2-0.4,0.1-0.8-0.2-1.1L12.9,27.7c-0.3-0.3-0.7-0.4-1.1-0.2    c-0.4,0.2-0.6,0.5-0.6,0.9v25.2C11.2,54.1,11.7,54.5,12.2,54.5z M13.2,30.7l22.4,21.8H13.2V30.7z"></path></g><g><path d="M64,1.3H53.7c-0.6,0-1,0.4-1,1v45.3c0,0.6,0.4,1,1,1H64c0.6,0,1-0.4,1-1V2.3C65,1.7,64.6,1.3,64,1.3z M54.7,46.6V3.3H63V6    h-2.7c-0.6,0-1,0.4-1,1c0,0.6,0.4,1,1,1H63v3.5h-2.7c-0.6,0-1,0.4-1,1c0,0.6,0.4,1,1,1H63v3.5h-4.1c-0.6,0-1,0.4-1,1    c0,0.6,0.4,1,1,1H63v2.8h-2.7c-0.6,0-1,0.4-1,1s0.4,1,1,1H63v3.5h-2.7c-0.6,0-1,0.4-1,1c0,0.6,0.4,1,1,1H63v3.5h-4.1    c-0.6,0-1,0.4-1,1c0,0.6,0.4,1,1,1H63v2.8h-2.7c-0.6,0-1,0.4-1,1c0,0.6,0.4,1,1,1H63v3.5h-2.7c-0.6,0-1,0.4-1,1c0,0.6,0.4,1,1,1    H63v1.4H54.7z"></path></g></g></svg></g></svg>