<svg xmlns="http://www.w3.org/2000/svg" xmlns:xlink="http://www.w3.org/1999/xlink" width="1200" height="1200" viewBox="0 0 1200 1200"><rect width="100%" height="100%" fill="#f5d327" rx="60" ry="60"></rect><g transform="translate(600 600) scale(0.69 0.69) rotate(0) translate(-600 -600)" style="fill:#1a1a1a"><svg fill="#1a1a1a" xmlns="http://www.w3.org/2000/svg" xmlns:xlink="http://www.w3.org/1999/xlink" version="1.1" x="0px" y="0px" viewBox="0 0 100 100" style="enable-background:new 0 0 100 100;" xml:space="preserve"><path d="M95,22.6c0-0.1-0.1-0.2-0.1-0.2c0,0,0-0.1,0-0.1c0-0.1-0.1-0.2-0.1-0.3c0,0,0-0.1-0.1-0.1c-0.1-0.1-0.1-0.2-0.2-0.3l-16-16  c-0.1-0.1-0.2-0.2-0.3-0.2c0,0,0,0-0.1,0c-0.1,0-0.2-0.1-0.3-0.1c0,0-0.1,0-0.1,0c-0.1,0-0.2-0.1-0.2-0.1c-0.1,0-0.3,0-0.4,0H61  c-3.3,0-6,2.7-6,6v40c0,3.3,2.7,6,6,6h28c3.3,0,6-2.7,6-6V23C95,22.9,95,22.7,95,22.6z M79,11.8l9.2,9.2H81c-1.1,0-2-0.9-2-2V11.8z   M91,51c0,1.1-0.9,2-2,2H61c-1.1,0-2-0.9-2-2V11c0-1.1,0.9-2,2-2h14v10c0,3.3,2.7,6,6,6h10V51z M88,81h-3.7c0.4-0.9,0.7-1.9,0.7-3  c0-3.9-3.1-7-7-7H61.2L44.5,52.9C42.3,50.4,39,49,35.7,49H11c-3.3,0-6,2.7-6,6v18c0,3.3,2.7,6,6,6h9.4c1.3,0,2.5,0.4,3.5,1.1  l17.8,12.9c1.7,1.2,3.8,1.9,5.9,1.9H88c3.9,0,7-3.1,7-7S91.9,81,88,81z M78,75c1.7,0,3,1.3,3,3c0,1.6-1.3,3-3,3H64.5  c0.3-0.7,0.6-1.5,0.6-2.3c0.1-1.3-0.1-2.5-0.7-3.7H78z M15,75h-4c-1.1,0-2-0.9-2-2V55c0-1.1,0.9-2,2-2h4V75z M88,91H47.6  c-1.3,0-2.5-0.4-3.5-1.2L26.3,76.9c-1.7-1.2-3.8-1.9-5.9-1.9H19V53h16.7c2.2,0,4.4,0.9,5.9,2.6L60.4,76c0.6,0.6,0.9,1.4,0.8,2.3  c-0.1,0.8-0.5,1.6-1.2,2.1c-1.2,0.9-3,0.7-4.2-0.5l-18-19.5c-0.8-0.8-2-0.9-2.8-0.1c-0.4,0.4-0.6,0.9-0.6,1.5c0,0.5,0.2,1,0.5,1.3  l17.9,19.5c1.3,1.4,3,2.2,4.7,2.3c0.1,0,0.3,0,0.4,0h30c1.7,0,3,1.3,3,3C91,89.6,89.7,91,88,91z"></path></svg></g></svg>