<svg xmlns="http://www.w3.org/2000/svg" xmlns:xlink="http://www.w3.org/1999/xlink" width="1200" height="1200" viewBox="0 0 1200 1200"><rect width="100%" height="100%" fill="#CCC200" rx="60" ry="60"></rect><g transform="translate(600 600) scale(0.69 0.69) rotate(0) translate(-600 -600)" style="fill:#1A1A1A"><svg fill="#1A1A1A" xmlns="http://www.w3.org/2000/svg" xmlns:xlink="http://www.w3.org/1999/xlink" version="1.1" x="0px" y="0px" viewBox="0 0 100 100" enable-background="new 0 0 100 100" xml:space="preserve"><g><path fill="none" d="M56.716,6.581c-20.42,0-37.034,16.613-37.034,37.034c0,5.763,1.324,11.222,3.683,16.091l13.139-22.723   l25.078,43.336c18.127-2.392,32.167-17.934,32.167-36.704C93.749,23.194,77.136,6.581,56.716,6.581z M63.763,63.224L53.109,46.875   V19.592h5.456v25.493l9.593,14.906L63.763,63.224z"></path><path d="M98.749,43.615c0-23.178-18.856-42.034-42.033-42.034S14.682,20.436,14.682,43.614c0,7.718,2.1,14.95,5.745,21.172   L2.704,95.435H70.33l-6.064-10.479C83.85,81.387,98.749,64.215,98.749,43.615z M39.572,88.054h-6.076v-5.668h6.076V88.054z    M39.572,79.031h-6.076V55.679h6.076V79.031z M61.583,80.319L36.504,36.983L23.365,59.706c-2.358-4.869-3.683-10.328-3.683-16.091   c0-20.421,16.614-37.034,37.034-37.034s37.033,16.613,37.033,37.034C93.749,62.385,79.709,77.928,61.583,80.319z"></path><polygon points="58.565,19.592 53.109,19.592 53.109,46.875 63.763,63.224 68.158,59.991 58.565,45.085  "></polygon></g></svg></g></svg>