<svg xmlns="http://www.w3.org/2000/svg" xmlns:xlink="http://www.w3.org/1999/xlink" width="1200" height="1200" viewBox="0 0 1200 1200"><rect width="100%" height="100%" fill="#F5D327" rx="60" ry="60"></rect><g transform="translate(600 600) scale(0.69 0.69) rotate(0) translate(-600 -600)" style="fill:#1A1A1A"><svg fill="#1A1A1A" xmlns="http://www.w3.org/2000/svg" xmlns:xlink="http://www.w3.org/1999/xlink" version="1.0" x="0px" y="0px" viewBox="0 0 100 100" enable-background="new 0 0 100 100" xml:space="preserve"><path d="M62.3062363,52.1582336c0.6274452,0,1.1885719-0.563942,1.1885719-1.1899681  c0-0.625782-0.5611267-1.1885452-1.1885719-1.1885452c-0.6243896,0-1.188549,0.5627632-1.188549,1.1885452  C61.1176872,51.5942917,61.6818466,52.1582336,62.3062363,52.1582336z"></path><path d="M50.2238235,61.7979317c-0.6248703,0-1.1885719,0.5644226-1.1885719,1.1906662  c0,0.6253242,0.5637016,1.1880913,1.1885719,1.1880913c0.627182,0,1.1913643-0.562767,1.1913643-1.1880913  C51.4151878,62.3623543,50.8510056,61.7979317,50.2238235,61.7979317z"></path><path d="M49.0978165,39.1379395c0,0.6255684,0.563942,1.1885719,1.1890297,1.1885719  c0.6262627,0,1.1906662-0.5630035,1.1906662-1.1885719c0-0.6260262-0.5637054-1.1899681-1.1906662-1.1899681  C49.6622162,37.9479713,49.0978165,38.5119133,49.0978165,39.1379395z"></path><path d="M38.3302345,49.7797203c-0.6250877,0-1.1890297,0.5627632-1.1887894,1.1885452  c0,0.6260262,0.5641594,1.1899681,1.1887894,1.1899681c0.6269646,0,1.1906662-0.563942,1.1906662-1.1899681  C39.5209007,50.3424835,38.9571991,49.7797203,38.3302345,49.7797203z"></path><path d="M30.0044308,51.0945511c0,11.204998,9.0785923,20.3454361,20.3451939,20.3454361  c11.2064209,0,20.3447113-9.1404381,20.3447113-20.3454361c0-11.2684784-9.1382904-20.3449554-20.3447113-20.3449554  C39.0830231,30.7495956,30.0044308,39.8255882,30.0044308,51.0945511z M66.1872711,51.0315285  c0,8.7632217-7.0744247,15.9006691-15.8376465,15.9006691c-8.7634392,0-15.9002113-7.1365089-15.9002113-15.9006691  c0-8.7634392,7.1367722-15.83741,15.9002113-15.83741C59.1128464,35.1941185,66.1872711,42.2680893,66.1872711,51.0315285z"></path><path d="M44.4037819,41.8927536c-2.0046005-2.0048409-5.1972923,1.0006638-3.2557106,3.066864l7.1995316,7.8244019  c0.3751183,0.5009193,0.9397583,0.7516098,1.6269264,0.7516098h6.386322c2.7519951,0.0002403,3.0652237-4.5077629,0-4.5077629  h-5.4470444L44.4037819,41.8927536z"></path><path d="M64.557312,28.5749798c-0.2528076,0.4336376-0.2561111,0.9688988-0.0075378,1.4065571l10.8835068,15.2671089  c0.0185928,0.0334015,0.038826,0.0658646,0.0597458,0.0971451c0.2598648,0.3793106,0.6897736,0.6097946,1.1537552,0.6126099  c0.5016174,0.0023613,0.9670181-0.2629204,1.2219467-0.6956444l11.0918884-15.146698  c0.2530518-0.4334221,0.2565613-0.9701042,0.0070572-1.4065838c-0.2443542-0.4326973-0.7104568-0.7069149-1.2127762-0.7092743  l-4.3749008-0.0242271V5.6626382H70.2987976v22.2409229l-4.5192947-0.0242252  C65.2769165,27.8757954,64.8112793,28.1413174,64.557312,28.5749798z"></path><path d="M88.2666321,20.3651295H85.647522v4.6747437h2.6191101c1.2896652,0,2.3376007,1.0488491,2.3376007,2.3373604v50.2536469  H69.6948547h-8.1458664H10.0945587V27.3772335c0-1.2885113,1.0465145-2.3373604,2.3376007-2.3373604h55.285141v-4.6747437  h-55.285141c-3.8681068,0-7.0123448,3.1451759-7.0123448,7.012104v58.4343338c0,3.8678665,3.144238,7.0123444,7.0123448,7.0123444  h49.1168289h8.1458664h18.5717773c3.866684,0,7.0123444-3.1444778,7.0123444-7.0123444V27.3772335  C95.2789764,23.5117264,92.133316,20.3651295,88.2666321,20.3651295z"></path></svg></g></svg>