<svg xmlns="http://www.w3.org/2000/svg" xmlns:xlink="http://www.w3.org/1999/xlink" width="1200" height="1200" viewBox="0 0 1200 1200"><rect width="100%" height="100%" fill="#44CC00" rx="60" ry="60"></rect><g transform="translate(600 600) scale(0.69 0.69) rotate(0) translate(-600 -600)" style="fill:#1a1a1a"><svg fill="#1a1a1a" xmlns="http://www.w3.org/2000/svg" xmlns:xlink="http://www.w3.org/1999/xlink" version="1.1" x="0px" y="0px" viewBox="0 0 512 512" enable-background="new 0 0 512 512" xml:space="preserve"><g><path d="M499.8,306.8h-30.5c-5.6,0-10.2,4.5-10.2,10.2v142.2H52.8V317c0-5.6-4.5-10.2-10.2-10.2H12.2C6.5,306.8,2,311.3,2,317   v167.6c0,14,11.4,25.4,25.4,25.4h457.2c14,0,25.4-11.4,25.4-25.4V317C510,311.3,505.5,306.8,499.8,306.8z"></path><path d="M238,375.6c5,5,11.5,7.4,18,7.4c6.5,0,13-2.5,18-7.4L375.6,274c9.9-9.9,9.9-26,0-35.9c-9.9-9.9-26-9.9-35.9,0l-58.2,58.2   V27.4C281.4,13.4,270,2,256,2s-25.4,11.4-25.4,25.4v268.9L172.4,238c-9.9-9.9-26-9.9-35.9,0c-9.9,9.9-9.9,26,0,35.9L238,375.6z"></path></g></svg></g></svg>