<svg xmlns="http://www.w3.org/2000/svg" xmlns:xlink="http://www.w3.org/1999/xlink" width="1200" height="1200" viewBox="0 0 1200 1200"><rect width="100%" height="100%" fill="#CC0000" rx="60" ry="60"></rect><g transform="translate(600 600) scale(0.69 0.69) rotate(0) translate(-600 -600)" style="fill:#FFFFFF"><svg fill="#FFFFFF" xmlns="http://www.w3.org/2000/svg" xmlns:xlink="http://www.w3.org/1999/xlink" version="1.1" x="0px" y="0px" viewBox="0 0 100 100" enable-background="new 0 0 100 100" xml:space="preserve"><path d="M50,75.8c-1.9,0-3.5-1.6-3.5-3.5V65c0-1.9,1.6-3.5,3.5-3.5s3.5,1.6,3.5,3.5v7.3C53.5,74.3,51.9,75.8,50,75.8z M47.5,7.1  l-19,19c-1.4,1.4-1.4,3.6,0,4.9c1.4,1.4,3.6,1.4,4.9,0l13-13v34.2c0,1.9,1.6,3.5,3.5,3.5s3.5-1.6,3.5-3.5V18.1l13,13  c0.7,0.7,1.6,1,2.5,1s1.8-0.3,2.5-1c1.4-1.4,1.4-3.6,0-4.9l-19-19C51.1,5.8,48.9,5.8,47.5,7.1z M19.1,69.2c0-1.9-1.6-3.5-3.5-3.5  s-3.5,1.6-3.5,3.5v21.2c0,1.9,1.6,3.5,3.5,3.5h68.7c1.9,0,3.5-1.6,3.5-3.5V69.2c0-1.9-1.6-3.5-3.5-3.5s-3.5,1.6-3.5,3.5v17.7H19.1  V69.2z"></path></svg></g></svg>