<svg xmlns="http://www.w3.org/2000/svg" xmlns:xlink="http://www.w3.org/1999/xlink" width="1200" height="1200" viewBox="0 0 1200 1200"><rect width="100%" height="100%" fill="#CCC200" rx="60" ry="60"></rect><g transform="translate(600 600) scale(0.69 0.69) rotate(0) translate(-600 -600)" style="fill:#000000"><svg fill="#000000" xmlns="http://www.w3.org/2000/svg" xmlns:xlink="http://www.w3.org/1999/xlink" version="1.1" x="0px" y="0px" viewBox="0 0 512 512" enable-background="new 0 0 512 512" xml:space="preserve"><g><path d="M455,405.284V104.715c22.468-2.496,40-21.593,40-44.715c0-24.813-20.188-45-45-45c-23.123,0-42.22,17.532-44.716,40   H104.715C102.219,32.532,83.123,15,60,15c-24.813,0-45,20.187-45,45c0,23.123,17.532,42.219,40,44.715v300.569   C32.532,407.779,15,426.877,15,450c0,24.813,20.187,45,45,45c23.123,0,42.219-17.532,44.715-40h300.569   c2.496,22.468,21.593,40,44.716,40c24.813,0,45-20.187,45-45C495,426.877,477.468,407.779,455,405.284z M450,25   c19.299,0,35,15.701,35,35s-15.701,35-35,35s-35-15.701-35-35S430.701,25,450,25z M25,60c0-19.299,15.701-35,35-35s35,15.701,35,35   S79.299,95,60,95S25,79.299,25,60z M60,485c-19.299,0-35-15.701-35-35s15.701-35,35-35s35,15.701,35,35S79.299,485,60,485z    M104.715,445c-2.313-20.825-18.89-37.402-39.715-39.716V104.715c20.825-2.313,37.402-18.891,39.715-39.715h300.569   c2.313,20.825,18.891,37.402,39.716,39.715v300.569c-20.825,2.313-37.402,18.891-39.716,39.716H104.715z M450,485   c-19.299,0-35-15.701-35-35s15.701-35,35-35s35,15.701,35,35S469.299,485,450,485z"></path><path d="M390,115H120c-2.761,0-5,2.239-5,5v270c0,2.762,2.239,5,5,5h270c2.762,0,5-2.238,5-5V120C395,117.239,392.762,115,390,115z    M385,385H125V125h260V385z"></path><path d="M180,335h150c2.762,0,5-2.238,5-5V180c0-2.761-2.238-5-5-5H180c-2.761,0-5,2.239-5,5v150C175,332.762,177.239,335,180,335z    M185,185h140v140H185V185z"></path><circle cx="60" cy="60" r="10"></circle><circle cx="60" cy="450" r="10"></circle><circle cx="450" cy="60" r="10"></circle><circle cx="450" cy="450" r="10"></circle></g></svg></g></svg>