<svg xmlns="http://www.w3.org/2000/svg" xmlns:xlink="http://www.w3.org/1999/xlink" width="1200" height="1200" viewBox="0 0 1200 1200"><rect width="100%" height="100%" fill="#3BB300" rx="60" ry="60"></rect><g transform="translate(600 600) scale(0.69 0.69) rotate(0) translate(-600 -600)" style="fill:#FFFFFF"><svg fill="#FFFFFF" xmlns="http://www.w3.org/2000/svg" version="1.1" viewBox="0 0 34 34" x="0px" y="0px"><title>merge</title><path d="M1.996 1.563c-0.246 0-0.434 0.187-0.434 0.434v18.678c0 0.246 0.187 0.434 0.434 0.434h10.896v10.896c0 0.246 0.187 0.434 0.434 0.434h18.678c0.246 0 0.434-0.187 0.434-0.434v-18.678c0-0.246-0.187-0.434-0.434-0.434h-10.896v-10.896c0-0.246-0.187-0.434-0.434-0.434h-18.678zM2.43 2.43h17.809v10.896c0 0.245 0.191 0.436 0.436 0.436h10.896v17.809h-17.809v-10.896c0-0.245-0.191-0.436-0.436-0.436h-10.896v-17.809z"></path></svg></g></svg>