<svg xmlns="http://www.w3.org/2000/svg" xmlns:xlink="http://www.w3.org/1999/xlink" width="1200" height="1200" viewBox="0 0 1200 1200"><rect width="100%" height="100%" fill="#3BB300" rx="60" ry="60"></rect><g transform="translate(600 600) scale(0.69 0.69) rotate(0) translate(-600 -600)" style="fill:#1A1A1A"><svg fill="#1A1A1A" xmlns="http://www.w3.org/2000/svg" xmlns:xlink="http://www.w3.org/1999/xlink" version="1.1" x="0px" y="0px" viewBox="0 0 100 100" style="enable-background:new 0 0 100 100;" xml:space="preserve"><g><g><g><path d="M50,79.4c-13.2,0-25.7-2.6-35.1-7.4C5.3,67.1,0,60.5,0,53.4C0,46.9,4.5,40.8,12.7,36     c0.5-0.3,1.1-0.1,1.4,0.4c0.3,0.5,0.1,1.1-0.4,1.4C6.2,42.1,2,47.7,2,53.4c0,13.2,21.5,24,48,24s48-10.8,48-24     c0-3.9-1.9-7.7-5.5-11.1c-0.4-0.4-0.4-1,0-1.4c0.4-0.4,1-0.4,1.4,0c4,3.8,6.2,8.2,6.2,12.6c0,7.1-5.3,13.7-14.9,18.6     C75.7,76.8,63.2,79.4,50,79.4z"></path></g><g><path d="M88.4,45.4c-0.6,0-1-0.4-1-1v-8.5h8.2c0.6,0,1,0.4,1,1s-0.4,1-1,1h-6.2v6.5C89.4,45,89,45.4,88.4,45.4z"></path></g><g><path d="M35.7,91.8c-0.1,0-0.2,0-0.3,0c-0.5-0.2-0.8-0.7-0.6-1.3l2.2-6.8c0.2-0.5,0.7-0.8,1.3-0.6     c0.5,0.2,0.8,0.7,0.6,1.3l-2.2,6.8C36.5,91.6,36.1,91.8,35.7,91.8z"></path></g><g><path d="M45.1,92.4c0,0-0.1,0-0.1,0c-0.5-0.1-0.9-0.6-0.9-1.1l0.8-6.6c0.1-0.5,0.6-0.9,1.1-0.9     c0.5,0.1,0.9,0.6,0.9,1.1l-0.8,6.6C46,92,45.6,92.4,45.1,92.4z"></path></g><g><path d="M16.3,88.1c-0.2,0-0.5-0.1-0.7-0.3c-0.4-0.4-0.4-1-0.1-1.4l5.5-6.2c0.4-0.4,1-0.4,1.4-0.1     c0.4,0.4,0.4,1,0.1,1.4l-5.5,6.2C16.9,88,16.6,88.1,16.3,88.1z"></path></g><g><path d="M26.5,90.5c-0.2,0-0.3,0-0.5-0.1c-0.5-0.3-0.6-0.9-0.4-1.4l3.9-6.8c0.3-0.5,0.9-0.6,1.4-0.4     c0.5,0.3,0.6,0.9,0.4,1.4L27.4,90C27.2,90.3,26.9,90.5,26.5,90.5z"></path></g><g><path d="M83.7,88.2c-0.3,0-0.5-0.1-0.7-0.3l-5.5-6.2c-0.4-0.4-0.3-1,0.1-1.4c0.4-0.4,1-0.3,1.4,0.1l5.5,6.2     c0.4,0.4,0.3,1-0.1,1.4C84.2,88.1,83.9,88.2,83.7,88.2z"></path></g><g><path d="M54.9,92.4c-0.5,0-0.9-0.4-1-0.9l-0.8-6.6c-0.1-0.5,0.3-1,0.9-1.1c0.5-0.1,1,0.3,1.1,0.9l0.8,6.6     c0.1,0.5-0.3,1-0.9,1.1C55,92.4,55,92.4,54.9,92.4z"></path></g><g><path d="M64.3,91.8c-0.4,0-0.8-0.3-1-0.7l-2.2-6.6c-0.2-0.5,0.1-1.1,0.6-1.3c0.5-0.2,1.1,0.1,1.3,0.6l2.2,6.6     c0.2,0.5-0.1,1.1-0.6,1.3C64.5,91.8,64.4,91.8,64.3,91.8z"></path></g><g><path d="M73.5,90.5c-0.3,0-0.7-0.2-0.9-0.5l-3.9-6.8c-0.3-0.5-0.1-1.1,0.4-1.4c0.5-0.3,1.1-0.1,1.4,0.4l3.9,6.8     c0.3,0.5,0.1,1.1-0.4,1.4C73.8,90.5,73.7,90.5,73.5,90.5z"></path></g></g><g><g><g><path d="M73.7,59.6H18.1V17.4h55.6V59.6z M20.1,57.6h51.6V19.4H20.1V57.6z"></path></g><g><polygon points="83.6,49.8 72.7,49.8 72.7,47.8 81.6,47.8 81.6,9.6 30,9.6 30,18.4 28,18.4 28,7.6 83.6,7.6           "></polygon></g><g><path d="M19.1,35.9c-0.6,0-1-0.4-1-1s0.4-1,1-1c8.5,0,15.4-6.9,15.4-15.4c0-0.6,0.4-1,1-1c0.6,0,1,0.4,1,1      C36.5,28,28.7,35.9,19.1,35.9z"></path></g></g><g><path d="M19.6,46.4c-0.3,0-0.5,0-0.6,0c-0.6,0-1-0.5-0.9-1.1c0-0.6,0.5-1,1.1-0.9c0.5,0,11.9,0.6,20.8-12.3     l0.8-1.2l7.3,10.6l12.8-17.3l12.7,17.3c0.3,0.4,0.2,1.1-0.2,1.4c-0.4,0.3-1.1,0.2-1.4-0.2L60.8,27.6L48,44.9l-7.2-10.6     C32.4,45.7,22.2,46.4,19.6,46.4z"></path></g></g></g></svg></g></svg>