<svg xmlns="http://www.w3.org/2000/svg" xmlns:xlink="http://www.w3.org/1999/xlink" width="1200" height="1200" viewBox="0 0 1200 1200"><rect width="100%" height="100%" fill="#CC0000" rx="60" ry="60"></rect><g transform="translate(600 600) scale(0.69 0.69) rotate(0) translate(-600 -600)" style="fill:#FFFFFF"><svg fill="#FFFFFF" xmlns:dc="http://purl.org/dc/elements/1.1/" xmlns:cc="http://creativecommons.org/ns#" xmlns:rdf="http://www.w3.org/1999/02/22-rdf-syntax-ns#" xmlns:svg="http://www.w3.org/2000/svg" xmlns="http://www.w3.org/2000/svg" xmlns:sodipodi="http://sodipodi.sourceforge.net/DTD/sodipodi-0.dtd" xmlns:inkscape="http://www.inkscape.org/namespaces/inkscape" version="1.1" x="0px" y="0px" viewBox="0 0 100 100"><g transform="translate(0,-952.36218)"><path style="text-indent:0;text-transform:none;direction:ltr;block-progression:tb;baseline-shift:baseline;color:#000000;enable-background:accumulate;" d="M 49.8125,958.36458 A 2.0021961,2.0021415 0 1 0 50,962.36447 c 22.009994,0 40,19.59587 40,44.06133 0,10.8471 -3.227353,20.1105 -9,27.6242 l 0,-6.6873 A 2.0001999,2.0001454 0 0 0 78.78125,1025.3315 2.0001999,2.0001454 0 0 0 77,1027.3627 l 0,11.9997 a 2.0001999,2.0001454 0 0 0 2,1.9999 l 12,0 a 2.0001999,2.0001454 0 1 0 0,-3.9999 l -7.53125,0 C 90.188919,1029.0039 94,1018.4905 94,1006.4258 94,979.99019 74.381924,958.36458 50,958.36458 a 2.0002,2.0001455 0 0 0 -0.1875,0 z m -41,4.99986 A 2.0021961,2.0021415 0 1 0 9,967.36433 l 7.53125,0 C 9.8110845,975.7229 6,986.20491 6,998.26974 c 0,26.43556 19.618076,48.09246 44,48.09246 a 2.0002,2.0001455 0 1 0 0,-3.9999 c -22.009994,0 -40,-19.6272 -40,-44.09256 0,-10.84712 3.22735,-20.07924 9,-27.593 l 0,6.68732 a 2.0001999,2.0001454 0 1 0 4,0 l 0,-11.99967 a 2.0001999,2.0001454 0 0 0 -2,-1.99995 l -12,0 a 2.0001999,2.0001454 0 0 0 -0.1875,0 z m 34,8.99976 A 2.0002,2.0001455 0 0 0 41,974.36414 l 0,6.18733 -4.4375,-4.37488 a 2.0002,2.0001455 0 0 0 -2.8125,0 l -9.90625,9.90598 A 2.0002,2.0001455 0 0 0 23.8125,988.895 l 4.40625,4.46862 -6.21875,0 a 2.0002,2.0001455 0 0 0 -2,1.99995 l 0,13.99963 a 2.0002,2.0001455 0 0 0 2,1.9999 l 6.1875,0 -4.375,4.4374 a 2.0002,2.0001455 0 0 0 0.03125,2.8124 l 9.90625,9.906 a 2.0002,2.0001455 0 0 0 2.8125,0 L 41,1024.144 l 0,6.2186 a 2.0002,2.0001455 0 0 0 2,2 l 14,0 a 2.0002,2.0001455 0 0 0 2,-2 l 0,-6.2186 4.4375,4.3749 a 2.0002,2.0001455 0 0 0 2.8125,0 l 9.90625,-9.906 a 2.0002,2.0001455 0 0 0 0.03125,-2.8124 l -4.375,-4.4374 6.1875,0 a 2.0002,2.0001455 0 0 0 2,-1.9999 l 0,-13.99963 a 2.0002,2.0001455 0 0 0 -2,-1.99995 l -6.21875,0 4.40625,-4.46862 a 2.0002,2.0001455 0 0 0 -0.03125,-2.81243 L 66.25,976.17659 a 2.0002,2.0001455 0 0 0 -2.8125,0 L 59,980.55147 l 0,-6.18733 a 2.0002,2.0001455 0 0 0 -2,-1.99994 l -14,0 a 2.0002,2.0001455 0 0 0 -0.1875,0 z m 2.1875,3.99989 10,0 0,5.99983 a 2.0002,2.0001455 0 0 0 1.34375,1.87495 c 0.3684,0.13089 0.929866,0.49802 1.78125,0.90623 a 2.0002,2.0001455 0 0 0 2.28125,-0.37499 l 4.4375,-4.34363 7.09375,7.09355 -4.375,4.43738 a 2.0002,2.0001455 0 0 0 -0.375,2.24994 c 0.406456,0.85137 0.813309,1.46148 0.9375,1.81245 A 2.0002,2.0001455 0 0 0 70,997.36352 l 6,0 0,9.99968 -6,0 a 2.0002,2.0001455 0 0 0 -1.875,1.3125 c -0.126307,0.3569 -0.529467,0.9574 -0.9375,1.8125 a 2.0002,2.0001455 0 0 0 0.375,2.2499 l 4.375,4.4374 -7.09375,7.0935 -4.4375,-4.3436 a 2.0002,2.0001455 0 0 0 -2.28125,-0.375 c -0.841105,0.4034 -1.451356,0.7767 -1.8125,0.9062 A 2.0002,2.0001455 0 0 0 55,1022.3628 l 0,5.9999 -10,0 0,-5.9999 a 2.0002,2.0001455 0 0 0 -1.34375,-1.9062 c -0.368247,-0.1309 -0.929725,-0.498 -1.78125,-0.9062 a 2.0002,2.0001455 0 0 0 -2.28125,0.375 l -4.4375,4.3436 -7.09375,-7.0935 4.375,-4.4374 a 2.0002,2.0001455 0 0 0 0.375,-2.2499 c -0.406449,-0.8513 -0.813305,-1.4615 -0.9375,-1.8125 A 2.0002,2.0001455 0 0 0 30,1007.3632 l -6,0 0,-9.99968 6,0 a 2.0002,2.0001455 0 0 0 1.875,-1.34372 c 0.126309,-0.35695 0.529467,-0.95745 0.9375,-1.81245 a 2.0002,2.0001455 0 0 0 -0.375,-2.24994 l -4.375,-4.43738 7.09375,-7.09355 4.4375,4.34363 a 2.0002,2.0001455 0 0 0 2.28125,0.37499 c 0.840943,-0.40334 1.45122,-0.77674 1.8125,-0.90623 A 2.0002,2.0001455 0 0 0 45,982.36392 l 0,-5.99983 z m 5,15.99956 c -5.499158,0 -10,4.5007 -10,9.99975 0,5.4989 4.500842,9.9997 10,9.9997 5.499158,0 10,-4.5008 10,-9.9997 0,-5.49905 -4.500842,-9.99975 -10,-9.99975 z m 0,3.99989 c 3.337398,0 6,2.66251 6,5.99986 0,3.3373 -2.662602,5.9998 -6,5.9998 -3.337398,0 -6,-2.6625 -6,-5.9998 0,-3.33735 2.662602,-5.99986 6,-5.99986 z" fill="#FFFFFF" fill-opacity="1" stroke="none" marker="none" visibility="visible" display="inline" overflow="visible"></path></g></svg></g></svg>