<svg xmlns="http://www.w3.org/2000/svg" xmlns:xlink="http://www.w3.org/1999/xlink" width="1200" height="1200" viewBox="0 0 1200 1200"><rect width="100%" height="100%" fill="#CC0000" rx="60" ry="60"></rect><g transform="translate(600 600) scale(0.69 0.69) rotate(0) translate(-600 -600)" style="fill:#FFFFFF"><svg fill="#FFFFFF" xmlns="http://www.w3.org/2000/svg" xmlns:xlink="http://www.w3.org/1999/xlink" version="1.1" x="0px" y="0px" viewBox="0 0 512 512" style="enable-background:new 0 0 512 512;" xml:space="preserve"><title>GlobalWarming-globalaveragetemperature-climatechange-earth-temperature</title><rect x="480" y="104" width="16" height="16"></rect><rect x="400" y="16" width="16" height="16"></rect><rect x="452.7" y="40" transform="matrix(0.7071 -0.7071 0.7071 0.7071 101.9615 342.1568)" width="22.6" height="16"></rect><path d="M256,422.1V384c0-8.8-7.2-16-16-16h-40c-17.7,0-32-14.3-32-32s14.3-32,32-32h8c8.8,0,16-7.2,16-16s-7.2-16-16-16h-32  c-17.7,0-32-14.3-32-32c0-8.8-7.2-16-16-16s-16,7.2-16,16c0,17.7-14.3,32-32,32H32.6C41,389.2,138.5,480,256,480  c13.7,0,27.4-1.2,41-3.7l-31.6-31.6C259.4,438.7,256,430.6,256,422.1z M80,296h16v16H80V296z M112,376H96v-16h16V376z M144,344h-16  v-16h16V344z M160,392h16v16h-16V392z M192,448h-16v-16h16V448z M232,416h-16v-16h16V416z"></path><path d="M73.4,195.3l17.9-17.9c6-6,14.1-9.4,22.6-9.4H256c8.8,0,16-7.2,16-16s-7.2-16-16-16h-72c-17.7,0-32-14.3-32-32  s14.3-32,32-32c17.7,0,32-14.3,32-32v-4.4C130,51.2,61,115.4,39,200h23C66.3,200,70.4,198.3,73.4,195.3z M136,136h16v16h-16V136z   M96,120h16v16H96V120z"></path><path d="M297,228.3c-2.7-2.8-6.5-4.3-10.3-4.3h-8c-8.1,0-14.6,6.5-14.6,14.6c0,3.9,1.5,7.6,4.3,10.3l14.1,14.1  c8.8,8.7,13.7,20.6,13.7,33c0,8.8,7.2,16,16,16s16-7.2,16-16v-24c0-8.1-3.2-15.9-9-21.7L297,228.3z"></path><circle cx="408" cy="104" r="40"></circle><circle cx="400" cy="432" r="16"></circle><path d="M420.6,388.6l-4.6-2.2V368h-16v-16h16v-24h-16v-16h16v-24h-16v-16h16v-24h-16v-16h16v-16c0-8.8-7.2-16-16-16s-16,7.2-16,16  l0,170.4l-4.6,2.2c-24,11.4-34.2,40-22.8,63.9s40,34.2,63.9,22.8c24-11.4,34.2-40,22.8-63.9C438.6,401.4,430.6,393.4,420.6,388.6z   M400,464c-17.7,0-32-14.3-32-32s14.3-32,32-32s32,14.3,32,32C432,449.7,417.7,464,400,464z"></path><path d="M408,160c-30.9,0-56-25-56-55.9c0-15.6,6.5-30.5,17.9-41C335.4,42.6,296.1,31.9,256,32c-8,0-16,0.4-24,1.3V40  c0,26.5-21.5,48-48,48c-8.8,0-16,7.2-16,16s7.2,16,16,16h72c17.7,0,32,14.3,32,32s-14.3,32-32,32H113.9c-4.2,0-8.3,1.7-11.3,4.7  l-17.9,17.9c-6,6-14.1,9.4-22.6,9.4H35.6c-2.4,13.2-3.6,26.6-3.6,40h48c8.8,0,16-7.2,16-16c0-17.7,14.3-32,32-32s32,14.3,32,32  c0,8.8,7.2,16,16,16h32c17.7,0,32,14.3,32,32s-14.3,32-32,32h-8c-8.8,0-16,7.2-16,16s7.2,16,16,16h40c17.7,0,32,14.3,32,32v38.1  c0,4.2,1.7,8.3,4.7,11.3l38.7,38.7c9.6-2.6,19.1-5.9,28.3-9.8c-16.4-30.4-5.6-68.4,24.4-85.7l0-160.6c0-17.7,14.3-32,32-32v-8h16  v12.3c9.9,5.7,16,16.3,16,27.7v160.6c3.1,1.8,6,3.8,8.8,6.1c49.2-71.8,52.3-165.6,8.2-240.6C438.4,153.5,423.6,160,408,160z M320,96  h16v16h-16V96z M344,296c0,17.7-14.3,32-32,32s-32-14.3-32-32c0-8.1-3.2-15.9-9-21.7L257,260.3c-12-12-12-31.4,0-43.3  c5.7-5.7,13.5-9,21.7-9h8c8.1,0,15.9,3.2,21.7,9l22.1,22.1c8.8,8.7,13.7,20.6,13.7,33V296z M349.7,173.7l-11.3-11.3l16-16l11.3,11.3  L349.7,173.7z"></path></svg></g></svg>