<svg xmlns="http://www.w3.org/2000/svg" xmlns:xlink="http://www.w3.org/1999/xlink" width="1200" height="1200" viewBox="0 0 1200 1200"><rect width="100%" height="100%" fill="#f5d327" rx="60" ry="60"></rect><g transform="translate(600 600) scale(0.69 0.69) rotate(0) translate(-600 -600)" style="fill:#1A1A1A"><svg fill="#1A1A1A" xmlns="http://www.w3.org/2000/svg" xmlns:xlink="http://www.w3.org/1999/xlink" version="1.1" x="0px" y="0px" viewBox="0 0 64 64" style="enable-background:new 0 0 64 64;" xml:space="preserve"><style type="text/css">
	.st0{display:none;}
	.st1{display:inline;}
	.st2{fill:none;stroke:#1A1A1A;stroke-width:0.1;stroke-miterlimit:10;}
</style><g class="st0"><g class="st1"><rect x="2" y="2" class="st2" width="60" height="60"></rect><line class="st2" x1="32" y1="2" x2="32" y2="62"></line><line class="st2" x1="62" y1="32" x2="2" y2="32"></line><line class="st2" x1="2" y1="2" x2="62" y2="62"></line><rect x="10" y="10" class="st2" width="44" height="44"></rect><line class="st2" x1="62" y1="2" x2="2" y2="62"></line><line class="st2" x1="2" y1="32" x2="32" y2="2"></line><line class="st2" x1="32" y1="2" x2="62" y2="32"></line><line class="st2" x1="62" y1="32" x2="32" y2="62"></line><line class="st2" x1="32" y1="62" x2="2" y2="32"></line><circle class="st2" cx="32" cy="32" r="21"></circle></g></g><path d="M42,28H22c-1.7,0-3,1.3-3,3v28c0,1.7,1.3,3,3,3h20c1.7,0,3-1.3,3-3V31C45,29.3,43.7,28,42,28z M43,59c0,0.6-0.4,1-1,1H22  c-0.6,0-1-0.4-1-1V31c0-0.6,0.4-1,1-1h20c0.6,0,1,0.4,1,1V59z"></path><circle cx="24" cy="33" r="1"></circle><circle cx="24" cy="57" r="1"></circle><circle cx="40" cy="57" r="1"></circle><circle cx="40" cy="33" r="1"></circle><path d="M32,39c-1.7,0-3,1.3-3,3s1.3,3,3,3s3-1.3,3-3S33.7,39,32,39z M32,43c-0.6,0-1-0.4-1-1s0.4-1,1-1s1,0.4,1,1S32.6,43,32,43z"></path><path d="M51,14H35v-2h16V2H13v10h16v2H13v10h38V14z M15,10V4h34v6H15z M31,12h2v2h-2V12z M49,22H15v-6h34V22z"></path><rect x="17" y="6" width="2" height="2"></rect><rect x="21" y="6" width="2" height="2"></rect><rect x="25" y="6" width="2" height="2"></rect><rect x="17" y="18" width="2" height="2"></rect><rect x="21" y="18" width="2" height="2"></rect><rect x="25" y="18" width="2" height="2"></rect><path d="M32,33c-5,0-9,4-9,9c0,4.6,3.4,8.4,7.9,8.9l1.5,2.6c0.5,1,1.5,1.6,2.7,1.8c0.2,0,0.3,0,0.5,0c1,0,1.9-0.4,2.6-1  c0.9-0.8,1.2-2,1.1-3.1c-0.1-0.9-0.6-1.8-1.4-2.4c2-1.7,3.1-4.2,3.1-6.8C41,37,37,33,32,33z M36.8,52.8c-0.3,0.4-0.9,0.6-1.4,0.5  c-0.6-0.1-1-0.4-1.3-0.9l-2.7-4.7c0-0.1,0-0.3,0.2-0.4h0.1c0.1,0,0.2,0,0.3,0.1l4.5,2.7c0.4,0.3,0.7,0.8,0.8,1.3  C37.4,51.9,37.2,52.4,36.8,52.8z M36.1,47.7L33.3,46c-0.7-0.6-1.7-0.7-2.6-0.3c-1,0.5-1.5,1.7-1.1,2.9c-2.7-1-4.6-3.5-4.6-6.6  c0-3.9,3.1-7,7-7s7,3.1,7,7C39,44.2,37.9,46.4,36.1,47.7z"></path><path d="M5,31c0-3.9,0.9-7.8,2.5-11.3l3.7,2.5l0.9-11.4L1.8,15.7l4.1,2.8C4,22.4,3,26.6,3,31c0,10,5,19.1,13.5,24.5l1.1-1.7  C9.7,48.8,5,40.3,5,31z M9.9,14.2l-0.4,4.5l-3.7-2.6L9.9,14.2z"></path><path d="M61,31c0-6.8-2.4-13.4-6.8-18.6l-1.5,1.3c4.1,4.8,6.3,11,6.3,17.4c0,6.4-2.3,12.7-6.6,17.6l-2.9-3.5l-4,10.7L56.8,54  l-3.1-3.8C58.4,44.9,61,38.2,61,31z M48.5,53.4l1.6-4.2l2.9,3.5L48.5,53.4z"></path></svg></g></svg>