<svg xmlns="http://www.w3.org/2000/svg" xmlns:xlink="http://www.w3.org/1999/xlink" width="1200" height="1200" viewBox="0 0 1200 1200"><rect width="100%" height="100%" fill="#3BB300" rx="60" ry="60"></rect><g transform="translate(600 600) scale(0.69 0.69) rotate(0) translate(-600 -600)" style="fill:#FFFFFF"><svg xmlns="http://www.w3.org/2000/svg" viewBox="0 0 32 32" fill="none" x="0px" y="0px"><path fill-rule="evenodd" clip-rule="evenodd" d="M20.75 20C20.75 19.0335 19.9665 18.25 19 18.25C18.0335 18.25 17.25 19.0335 17.25 20C17.25 20.9665 18.0335 21.75 19 21.75C19.9665 21.75 20.75 20.9665 20.75 20ZM22 20C22 18.3431 20.6569 17 19 17C17.3431 17 16 18.3431 16 20C16 21.6569 17.3431 23 19 23C20.6569 23 22 21.6569 22 20Z" fill="black"></path><path fill-rule="evenodd" clip-rule="evenodd" d="M27.75 18C27.75 17.0335 26.9665 16.25 26 16.25C25.0335 16.25 24.25 17.0335 24.25 18C24.25 18.9665 25.0335 19.75 26 19.75C26.9665 19.75 27.75 18.9665 27.75 18ZM29 18C29 16.3431 27.6569 15 26 15C24.3431 15 23 16.3431 23 18C23 19.6569 24.3431 21 26 21C27.6569 21 29 19.6569 29 18Z" fill="black"></path><path fill-rule="evenodd" clip-rule="evenodd" d="M7.75 9C7.75 8.0335 6.9665 7.25 6 7.25C5.0335 7.25 4.25 8.0335 4.25 9C4.25 9.9665 5.0335 10.75 6 10.75C6.9665 10.75 7.75 9.9665 7.75 9ZM9 9C9 7.34315 7.65685 6 6 6C4.34315 6 3 7.34315 3 9C3 10.6569 4.34315 12 6 12C7.65685 12 9 10.6569 9 9Z" fill="black"></path><path fill-rule="evenodd" clip-rule="evenodd" d="M13.75 15C13.75 14.0335 12.9665 13.25 12 13.25C11.0335 13.25 10.25 14.0335 10.25 15C10.25 15.9665 11.0335 16.75 12 16.75C12.9665 16.75 13.75 15.9665 13.75 15ZM15 15C15 13.3431 13.6569 12 12 12C10.3431 12 9 13.3431 9 15C9 16.6569 10.3431 18 12 18C13.6569 18 15 16.6569 15 15Z" fill="black"></path><path fill-rule="evenodd" clip-rule="evenodd" d="M21.75 12C21.75 11.0335 20.9665 10.25 20 10.25C19.0335 10.25 18.25 11.0335 18.25 12C18.25 12.9665 19.0335 13.75 20 13.75C20.9665 13.75 21.75 12.9665 21.75 12ZM23 12C23 10.3431 21.6569 9 20 9C18.3431 9 17 10.3431 17 12C17 13.6569 18.3431 15 20 15C21.6569 15 23 13.6569 23 12Z" fill="black"></path><path d="M6 22C7.65685 22 9 23.3431 9 25C9 26.6569 7.65685 28 6 28C4.34315 28 3 26.6569 3 25C3 23.3431 4.34315 22 6 22Z" fill="black"></path><path fill-rule="evenodd" clip-rule="evenodd" d="M7.75 25C7.75 24.0335 6.9665 23.25 6 23.25C5.0335 23.25 4.25 24.0335 4.25 25C4.25 25.9665 5.0335 26.75 6 26.75C6.9665 26.75 7.75 25.9665 7.75 25ZM9 25C9 23.3431 7.65685 22 6 22C4.34315 22 3 23.3431 3 25C3 26.6569 4.34315 28 6 28C7.65685 28 9 26.6569 9 25Z" fill="black"></path><path fill-rule="evenodd" clip-rule="evenodd" d="M14.75 7C14.75 6.0335 13.9665 5.25 13 5.25C12.0335 5.25 11.25 6.0335 11.25 7C11.25 7.9665 12.0335 8.75 13 8.75C13.9665 8.75 14.75 7.9665 14.75 7ZM16 7C16 5.34315 14.6569 4 13 4C11.3431 4 10 5.34315 10 7C10 8.65685 11.3431 10 13 10C14.6569 10 16 8.65685 16 7Z" fill="black"></path></svg></g></svg>