<svg xmlns="http://www.w3.org/2000/svg" xmlns:xlink="http://www.w3.org/1999/xlink" width="1200" height="1200" viewBox="0 0 1200 1200"><rect width="100%" height="100%" fill="#CCC200" rx="60" ry="60"></rect><g transform="translate(600 600) scale(0.69 0.69) rotate(0) translate(-600 -600)" style="fill:#FFFFFF"><svg fill="#FFFFFF" xmlns="http://www.w3.org/2000/svg" xmlns:xlink="http://www.w3.org/1999/xlink" version="1.1" x="0px" y="0px" viewBox="0 0 100 100" enable-background="new 0 0 100 100" xml:space="preserve"><path d="M53.5,17c-1.2-0.2-12.9-0.9-13.7,12.7l7.8,0c-0.2-6.1,8.7-8.4,12.1-4.2c3.8,4.7,2.5,13.3,2,27.9c0,0-2.7-10.9-14.1-10  c-16.7,1.3-17.7,19.4-17.7,19.4S29.1,83,46.1,83C64,83,67.4,66.6,68.5,60.9C69.6,55.6,75.8,19.9,53.5,17z M58.7,60.8  c-1.8,19.7-10.9,19.7-10.9,19.7c-5.1,0-11.6-5.1-10.3-17c0.4-3.8,1.6-13.6,10.8-16.5C55.1,44.8,59.5,51.4,58.7,60.8z"></path></svg></g></svg>