<svg xmlns="http://www.w3.org/2000/svg" xmlns:xlink="http://www.w3.org/1999/xlink" width="1200" height="1200" viewBox="0 0 1200 1200"><rect width="100%" height="100%" fill="#CC0000" rx="60" ry="60"></rect><g transform="translate(600 600) scale(0.69 0.69) rotate(0) translate(-600 -600)" style="fill:#FFFFFF"><svg fill="#FFFFFF" xmlns="http://www.w3.org/2000/svg" xmlns:xlink="http://www.w3.org/1999/xlink" version="1.1" x="0px" y="0px" viewBox="0 0 100 100" enable-background="new 0 0 100 100" xml:space="preserve"><path d="M100,31.2h-6.2v6.2h6.2V31.2L100,31.2z M87.5,31.2h-6.2v6.2h6.2V31.2L87.5,31.2z M37.5,81.2h-6.2v6.2h6.2V81.2L37.5,81.2z   M31.2,93.8L31.2,93.8v6.2h6.2v-6.2l0,0H31.2z M50,93.8h-6.2v6.2H50V93.8L50,93.8z M62.5,93.8h-6.2v6.2h6.2V93.8L62.5,93.8z   M75,93.8h-6.2v6.2H75V93.8L75,93.8z M87.5,93.8h-6.2v6.2h6.2V93.8L87.5,93.8z M100,93.8h-6.2v6.2h6.2V93.8L100,93.8z M100,81.2  h-6.2v6.2h6.2V81.2L100,81.2z M100,68.8h-6.2V75h6.2V68.8L100,68.8z M100,56.2h-6.2v6.2h6.2V56.2L100,56.2z M100,43.8h-6.2V50h6.2  V43.8L100,43.8z M75,0v37.5v5.9L69.1,38H62l13,12.5v8.8L53.2,38h-7.1L75,66.4V75h-0.2L37,37.7v7.1L67.7,75h-8.8L37,53.6v7.1L51.8,75  H43l-6-5.5V75H0V37.5V0h37.5H75z"></path></svg></g></svg>