<svg xmlns="http://www.w3.org/2000/svg" xmlns:xlink="http://www.w3.org/1999/xlink" width="1200" height="1200" viewBox="0 0 1200 1200"><rect width="100%" height="100%" fill="#CC0000" rx="60" ry="60"></rect><g transform="translate(600 600) scale(0.69 0.69) rotate(0) translate(-600 -600)" style="fill:#FFFFFF"><svg fill="#FFFFFF" xmlns="http://www.w3.org/2000/svg" xmlns:xlink="http://www.w3.org/1999/xlink" version="1.1" x="0px" y="0px" viewBox="0 0 100 100" enable-background="new 0 0 100 100" xml:space="preserve"><g><g><path fill="none" d="M52.099,34.011c-0.017-0.096-0.033-0.193-0.034-0.299c0.003,0.193,0.002,0.276-0.003,0.291    C52.074,34.005,52.086,34.009,52.099,34.011z"></path><path fill="none" d="M63.623,44.099c-0.017-0.096-0.033-0.193-0.034-0.299c0.003,0.193,0.002,0.276-0.003,0.292    C63.599,44.093,63.611,44.097,63.623,44.099z"></path><path fill="none" d="M35.54,19.139c0.157-3.053,0.176-6.125,0.178-9.186c-1.372-0.095-2.709-0.229-4.05-0.474    c0.014-0.019,0.054,0.566,0.083,0.731c0.104,0.587,0.213,1.173,0.251,1.768c0.089,1.409,0.022,2.844,0.035,4.256    c0.014,1.522,0.038,3.044,0.06,4.567c1.081,0.009,2.163,0.02,3.244,0.042C35.378,20.269,35.514,19.632,35.54,19.139z"></path><path fill="none" d="M31.63,9.471c0.017,0.096,0.033,0.193,0.034,0.299c-0.003-0.193-0.002-0.276,0.003-0.292    C31.655,9.477,31.642,9.473,31.63,9.471z"></path><path fill="none" d="M35.335,43.658c0.104,0.587,0.213,1.173,0.251,1.768c0.089,1.409,0.022,2.844,0.035,4.256    c0.014,1.522,0.038,3.044,0.06,4.567c1.082,0.009,2.163,0.02,3.244,0.043c0.036-0.574,0.172-1.211,0.198-1.704    c0.157-3.053,0.176-6.125,0.178-9.186c-1.372-0.095-2.709-0.229-4.05-0.474C35.265,42.908,35.305,43.493,35.335,43.658z"></path><path fill="none" d="M57.749,53.359c-0.012-0.572-0.033-1.144-0.049-1.717c-0.351,0.024-0.703,0.041-1.057,0.042    c-0.787,0.003-1.734-0.159-2.577-0.167c-0.002,0.478,0.052,0.992,0.046,1.386c-0.011,0.68-0.021,1.356-0.068,2.035    c-0.051,0.718-0.098,1.437-0.24,2.133c1.315-0.018,2.63-0.029,3.945-0.035C57.576,55.856,57.771,54.441,57.749,53.359z"></path><path fill="none" d="M48.189,24.343c-0.157,3.053-0.176,6.125-0.178,9.186c1.372,0.095,2.709,0.229,4.05,0.474    c-0.014,0.019-0.054-0.566-0.083-0.731c-0.104-0.587-0.213-1.173-0.251-1.768c-0.089-1.409-0.022-2.845-0.035-4.256    c-0.014-1.522-0.038-3.044-0.06-4.567c-1.082-0.009-2.163-0.02-3.244-0.043C48.35,23.213,48.214,23.85,48.189,24.343z"></path><path fill="none" d="M59.713,34.431c-0.157,3.053-0.176,6.125-0.178,9.186c1.372,0.095,2.709,0.229,4.05,0.474    c-0.014,0.019-0.054-0.566-0.083-0.731c-0.104-0.587-0.213-1.173-0.251-1.768c-0.089-1.409-0.022-2.844-0.035-4.256    c-0.014-1.522-0.038-3.044-0.06-4.567c-1.082-0.009-2.163-0.02-3.244-0.043C59.875,33.302,59.739,33.938,59.713,34.431z"></path><path fill="none" d="M35.213,42.919c0.017,0.096,0.033,0.193,0.034,0.299c-0.003-0.193-0.002-0.276,0.003-0.291    C35.238,42.924,35.225,42.921,35.213,42.919z"></path><path d="M72.125,57.701c-1.21-0.774-3.507-0.513-4.856-0.558c-2.483-0.082-4.969-0.105-7.455-0.109    c0.13-1.189-0.072-2.551-0.032-3.675c0.034-0.983,0.074-1.973,0.161-2.953c0.056-0.629-0.567-1.118-1.139-1.139    c-1.931-0.069-4.191-0.318-6.086,0.032c-0.397,0.073-0.708,0.45-0.817,0.817c-0.361,1.216-0.077,2.984-0.016,4.239    c0.043,0.895,0.07,1.844,0.266,2.737c-2.296,0.037-4.592,0.081-6.885,0.126c-1.205,0.024-2.408,0.065-3.611,0.11    c0.628-0.581,0.792-1.501,0.799-2.668c0.026-4.114-0.449-8.25-0.839-12.34c-0.057-0.603-0.483-1.182-1.156-1.156    c-2.199,0.085-4.311,0.225-6.476,0.504c-0.946-0.214-2.072,0.298-2.053,1.549c-0.012-0.745-0.041,0.317-0.041,0.313    c-0.077,0.564-0.202,1.139-0.233,1.706c-0.08,1.465,0.07,2.976,0.102,4.443c0.047,2.154,0.08,4.309,0.118,6.463    c0.012,0.707,0.409,1.323,0.988,1.655c-1.427,0.095-2.854,0.196-4.284,0.301c-0.233,0.017-0.389,0.137-0.484,0.29    c-0.313-0.147-0.786-0.032-0.914,0.361c-0.233,0.718,0.416,1.667,0.722,2.276c0.846,1.681,1.847,3.188,2.973,4.69    c2.786,3.716,5.7,7.332,8.617,10.945c0.934,1.157,1.872,2.31,2.797,3.473c0.033,0.042,0.058,0.082,0.077,0.115    c0.113,0.694,0.041,1.496,0.057,2.176c0.055,2.348,0.063,4.697,0.098,7.046c0.013,0.868,0.018,1.737,0.095,2.603    c0.034,0.381,0.231,2.296,0.217,1.048c0.016,1.496,2.343,1.5,2.326,0c0.013,1.154,0.163-0.623,0.192-1.048    c0.059-0.866,0.037-1.735,0.023-2.603c-0.036-2.348-0.1-4.699-0.193-7.046c-0.042-1.075,0.089-2.483-0.405-3.472    c-0.423-0.847-1.322-1.634-1.919-2.351c-2.804-3.365-5.602-6.734-8.365-10.133c-1.357-1.67-2.629-3.431-4.082-5.017    c-0.376-0.41-1.532-1.462-1.905-2.148c0.025,0.003,0.044,0.015,0.072,0.015c11.604,0.298,23.197,0.104,34.803,0.309    c1.922,0.034,4.015,0.359,5.978,0.35c-0.403,0.652-0.786,1.43-1.076,1.824c-4.036,5.487-8.514,10.641-12.816,15.918    c-1.441,1.767-1.315,3.275-1.384,5.555c-0.062,2.064-0.12,4.131-0.114,6.195c0.003,0.861-0.018,1.744,0.053,2.603    c0.002,0.029,0.007,0.082,0.013,0.146c-2.787,0.188-5.466,0.525-8.224,1.097c-0.48,0.1-0.502,0.91,0,0.993    c3.203,0.528,6.594,1.036,9.816,0.373c0.737-0.152,1.006-0.845,0.897-1.471c0.041-0.17,0.114-0.777,0.126-0.875    c0.08-0.662,0.081-1.346,0.11-2.011c0.089-2.044,0.1-4.092,0.142-6.138c0.026-1.256-0.094-2.677,0.114-3.936    c0.31-0.374,0.61-0.757,0.916-1.134c4.495-5.532,9.177-10.982,13.257-16.833C71.994,61.136,73.921,58.849,72.125,57.701z     M39.123,52.587c-0.025,0.493-0.161,1.129-0.198,1.704c-1.081-0.022-2.163-0.033-3.244-0.043c-0.022-1.522-0.046-3.044-0.06-4.567    c-0.013-1.411,0.054-2.847-0.035-4.256c-0.038-0.594-0.147-1.181-0.251-1.768c-0.029-0.165-0.069-0.75-0.083-0.731    c1.341,0.244,2.678,0.379,4.05,0.474C39.299,46.462,39.28,49.534,39.123,52.587z M35.247,43.218    c-0.002-0.106-0.017-0.204-0.034-0.299c0.012,0.002,0.025,0.006,0.037,0.008C35.246,42.942,35.244,43.025,35.247,43.218z     M54.043,54.937c0.048-0.678,0.058-1.355,0.068-2.035c0.006-0.394-0.048-0.907-0.046-1.386c0.844,0.009,1.79,0.17,2.577,0.167    c0.354-0.001,0.706-0.018,1.057-0.042c0.016,0.573,0.037,1.145,0.049,1.717c0.022,1.082-0.173,2.497-0.001,3.676    c-1.315,0.006-2.63,0.017-3.945,0.035C53.946,56.374,53.993,55.655,54.043,54.937z"></path><path d="M28.292,22.697c0.018,1.043,0.863,1.905,1.915,1.915c2.056,0.02,4.182,0.162,6.228-0.079    c2.028-0.239,2.424-1.473,2.435-3.32c0.026-4.114-0.449-8.25-0.839-12.34c-0.057-0.603-0.483-1.182-1.156-1.156    c-2.199,0.085-4.311,0.225-6.476,0.503c-0.946-0.214-2.072,0.298-2.053,1.55c-0.012-0.745-0.041,0.317-0.041,0.313    c-0.077,0.564-0.202,1.139-0.233,1.706c-0.08,1.465,0.07,2.976,0.102,4.443C28.222,18.388,28.255,20.543,28.292,22.697z     M31.664,9.771c-0.002-0.107-0.017-0.204-0.034-0.299c0.012,0.002,0.025,0.006,0.037,0.008    C31.663,9.494,31.661,9.577,31.664,9.771z M32.098,20.8c-0.022-1.522-0.046-3.044-0.06-4.567    c-0.013-1.411,0.054-2.847-0.035-4.256c-0.038-0.594-0.147-1.181-0.251-1.768c-0.029-0.165-0.069-0.75-0.083-0.731    c1.341,0.245,2.678,0.379,4.05,0.474c-0.002,3.061-0.021,6.133-0.178,9.186c-0.025,0.493-0.161,1.129-0.198,1.704    C34.261,20.821,33.179,20.809,32.098,20.8z"></path><path d="M65.046,28.959c-2.056-0.02-4.182-0.163-6.228,0.079c-2.028,0.239-2.424,1.473-2.435,3.32    c-0.024,3.749,0.368,7.515,0.733,11.249c-0.052-0.104-0.104-0.208-0.158-0.307c-0.309-0.566-1.289-0.627-1.581,0    c-0.563,1.213-0.861,2.863-0.167,4.089c0.578,1.022,2.336,0.871,2.594-0.339c0.092-0.432,0.085-0.886,0.017-1.34    c0.16,0.094,0.344,0.152,0.557,0.143c2.199-0.085,4.311-0.225,6.476-0.504c0.946,0.214,2.072-0.298,2.053-1.549    c0.012,0.745,0.041-0.317,0.041-0.313c0.077-0.564,0.202-1.139,0.233-1.706c0.08-1.465-0.07-2.976-0.102-4.443    c-0.03-1.354-0.051-2.708-0.074-4.062c0.075,0.122,0.159,0.243,0.264,0.361c0.553,0.625,1.538,0.381,1.947-0.251    c0.531-0.822,0.365-1.802,0.263-2.735c-0.102-0.929-0.185-1.918-0.431-2.819c-0.41-1.504-2.391-1.037-2.548,0.345    c-0.052,0.459-0.065,0.937-0.057,1.415C66.093,29.21,65.6,28.964,65.046,28.959z M63.589,43.8    c0.002,0.106,0.017,0.204,0.034,0.299c-0.012-0.002-0.025-0.006-0.037-0.008C63.591,44.076,63.592,43.993,63.589,43.8z     M63.155,32.77c0.022,1.522,0.046,3.044,0.06,4.567c0.013,1.411-0.054,2.847,0.035,4.256c0.038,0.594,0.147,1.181,0.251,1.768    c0.029,0.165,0.069,0.75,0.083,0.731c-1.341-0.245-2.678-0.379-4.05-0.474c0.002-3.061,0.021-6.133,0.178-9.186    c0.025-0.493,0.161-1.129,0.198-1.704C60.992,32.75,62.074,32.761,63.155,32.77z"></path><path d="M44.22,45.129c0.252-0.312,0.553-0.643,0.756-0.989c0.338-0.578,0.186-1.213,0.103-1.837    c-0.15-1.131-0.429-2.174-0.771-3.262c-0.396-1.261-2.088-0.939-2.21,0.299c-0.111,1.127-0.219,2.226-0.237,3.359    c-0.009,0.585-0.026,1.125,0.348,1.611c0.046,0.06,0.293,0.302,0.383,0.387c0.026,0.047,0.331,0.43,0.334,0.432    C43.238,45.464,43.916,45.505,44.22,45.129z"></path><path d="M47.662,48.566c-0.129,1.386-0.301,2.991,0.792,4.025c0.546,0.517,1.424,0.544,1.969,0    c1.008-1.007,0.891-2.435,0.818-3.772c-0.079-1.442-0.172-2.701-0.633-4.076c-0.262-0.783-1.501-1.12-1.917-0.251    C48.036,45.86,47.802,47.063,47.662,48.566z"></path><path d="M50.772,42.131c0.358-0.841,0.254-1.632-0.508-2.186c-0.199-0.145-0.571-0.145-0.77,0    c-0.761,0.553-0.866,1.344-0.508,2.186C49.274,42.809,50.484,42.809,50.772,42.131z"></path><path d="M60.868,48.541c-0.124,1.08-0.476,2.057-0.493,3.164c-0.015,0.943,0.428,2.175,1.591,2.175    c1.028,0,1.541-1.158,1.495-2.009c-0.063-1.151-0.492-2.204-0.61-3.33C62.717,47.262,61.014,47.271,60.868,48.541z"></path><path d="M69.08,36.726c-0.141-1.174-1.689-1.177-1.831,0c-0.073,0.607-0.186,1.114,0.148,1.607    c0.068,0.149,0.145,0.286,0.282,0.411c0.282,0.259,0.687,0.26,0.971,0c0.137-0.125,0.214-0.263,0.282-0.412    C69.263,37.84,69.152,37.324,69.08,36.726z"></path><path d="M66.597,46.105c-0.074,0.854-0.356,1.69-0.529,2.531c-0.186,0.907,0.412,1.821,1.387,1.821    c0.969,0,1.573-0.913,1.387-1.821c-0.173-0.841-0.455-1.677-0.529-2.531C68.218,45.003,66.692,45.001,66.597,46.105z"></path><path d="M46.172,53.449c0.465-1.174-0.268-2.719-0.753-3.788c-0.411-0.906-1.888-0.442-1.848,0.5    c0.023,0.523,0.016,1.045-0.035,1.567c-0.057,0.579-0.158,1.157,0.034,1.721C44.022,54.774,45.686,54.677,46.172,53.449z"></path><path d="M27.906,39.156c-0.169,1.298-0.276,2.574-0.295,3.885c-0.018,1.222-0.108,2.245,0.676,3.228    c0.35,0.439,1.243,0.439,1.591,0c1.453-1.835,0.436-5.3-0.212-7.352C29.343,37.893,28.032,38.191,27.906,39.156z"></path><path d="M36,39.345c0.549-0.074,1.103-0.488,1.226-1.056c0.226-1.043-0.088-2.312-0.568-3.212c-0.437-0.82-1.466-0.628-1.943,0    c-0.69,0.91-0.831,2.588-0.185,3.564C34.862,39.143,35.391,39.427,36,39.345z"></path><path d="M38.62,24.72c-0.877,1.701-1.525,5.149,0.317,6.373c0.482,0.32,1.327,0.233,1.71-0.221c0.81-0.96,0.62-1.888,0.386-3.048    c-0.196-0.975-0.355-1.964-0.741-2.886C40.017,24.281,39.02,23.945,38.62,24.72z"></path><path d="M62.773,19.514c0.482,0.32,1.327,0.233,1.71-0.221c0.81-0.96,0.62-1.888,0.386-3.048    c-0.196-0.975-0.355-1.964-0.741-2.885c-0.275-0.658-1.273-0.994-1.673-0.219C61.578,14.842,60.93,18.29,62.773,19.514z"></path><path d="M42.969,28.655c-0.305,1.149-0.756,2.796,0.308,3.644c0.542,0.432,1.117,0.435,1.664,0    c0.222-0.177,0.365-0.394,0.471-0.628c0.095,0.981,0.193,1.961,0.286,2.938c0.058,0.603,0.483,1.182,1.156,1.156    c2.199-0.085,4.311-0.225,6.476-0.503c0.946,0.214,2.072-0.298,2.053-1.549c0.012,0.745,0.041-0.317,0.041-0.313    c0.077-0.564,0.202-1.139,0.233-1.706c0.079-1.465-0.07-2.976-0.102-4.443c-0.047-2.154-0.08-4.309-0.118-6.463    c-0.018-1.043-0.863-1.905-1.915-1.915c-2.056-0.02-4.182-0.162-6.228,0.079c-2.028,0.239-2.424,1.473-2.435,3.32    c-0.013,2.031,0.098,4.068,0.259,6.102C44.629,27.55,43.239,27.638,42.969,28.655z M52.064,33.711    c0.002,0.106,0.017,0.204,0.034,0.299c-0.012-0.002-0.025-0.006-0.037-0.008C52.066,33.988,52.067,33.905,52.064,33.711z     M51.631,22.682c0.022,1.522,0.046,3.044,0.06,4.567c0.013,1.411-0.054,2.847,0.035,4.256c0.038,0.594,0.147,1.181,0.251,1.768    c0.029,0.165,0.069,0.75,0.083,0.731c-1.341-0.245-2.678-0.379-4.05-0.474c0.002-3.061,0.021-6.133,0.178-9.186    c0.025-0.493,0.161-1.129,0.198-1.704C49.468,22.661,50.549,22.672,51.631,22.682z"></path><path d="M40.035,13.614c0.569,0.71,1.778,0.428,2.186-0.282c0.718-1.249,0.327-2.638,0.145-4.002    c-0.183-1.371-0.474-2.61-1.052-3.864c-0.357-0.774-1.535-0.507-1.743,0.228c-0.383,1.355-0.446,2.699-0.407,4.108    C39.205,11.221,39.118,12.469,40.035,13.614z"></path><path d="M42.529,22.759c0.385,1.074,1.688,0.986,2.103,0c0.345-0.82,0.011-1.992-0.308-2.769c-0.15-0.364-0.426-0.644-0.846-0.644    c-0.353,0-0.789,0.269-0.846,0.644C42.504,20.834,42.232,21.93,42.529,22.759z"></path><path d="M50.6,16.968c0.723,0,1.521-0.663,1.444-1.445c-0.093-0.953-0.386-3.708-1.969-2.971    c-0.552,0.257-0.722,0.928-0.788,1.473c-0.06,0.495-0.128,0.999-0.132,1.498C49.15,16.304,49.824,16.968,50.6,16.968z"></path><path d="M58.241,24.795c0.814-1.048,0.716-2.144,0.648-3.433c-0.032-0.609-0.053-1.218-0.136-1.823    c-0.095-0.694-0.378-1.247-0.63-1.896c-0.315-0.811-1.389-0.849-1.692,0c-0.461,1.292-0.632,2.337-0.665,3.719    c-0.03,1.263-0.114,2.424,0.722,3.433C56.88,25.267,57.856,25.29,58.241,24.795z"></path><path d="M36.087,31.584c0.258-0.779,0.317-1.34,0.241-2.162c-0.067-0.721-0.232-1.43-0.384-2.137    c-0.194-0.906-1.531-0.836-1.765,0c-0.21,0.751-0.383,1.503-0.429,2.283c-0.023,0.396-0.07,0.842,0.025,1.231    c0.088,0.361,0.31,0.693,0.465,1.027C34.631,32.67,35.837,32.338,36.087,31.584z"></path><path d="M30.013,36.718c0.648-0.96,0.185-2.447-0.409-3.329c-0.448-0.666-1.368-0.519-1.638,0.214    c-0.341,0.925-0.647,2.223-0.112,3.115C28.359,37.56,29.493,37.489,30.013,36.718z"></path></g></g></svg></g></svg>