<svg xmlns="http://www.w3.org/2000/svg" xmlns:xlink="http://www.w3.org/1999/xlink" width="1200" height="1200" viewBox="0 0 1200 1200"><rect width="100%" height="100%" fill="#0080FF" rx="60" ry="60"></rect><g transform="translate(600 600) scale(0.69 0.69) rotate(0) translate(-600 -600)" style="fill:#FFFFFF"><svg fill="#FFFFFF" xmlns="http://www.w3.org/2000/svg" xmlns:xlink="http://www.w3.org/1999/xlink" version="1.1" x="0px" y="0px" viewBox="0 0 1024 1024" style="enable-background:new 0 0 1024 1024;" xml:space="preserve"><g><g><g><path d="M651.1,607.4c-13,15.7-27.3,30.1-43,43.1c-1.7,1.4-3.5,2.9-5.3,4.3c-0.8,0.6-1.6,1.2-2.3,1.8     c0.3-0.3,4.9-3.7,1.6-1.2c-3.3,2.5-6.7,4.9-10.1,7.3c-6.5,4.6-13.3,8.9-20.1,12.9c-7,4.1-14.2,8-21.5,11.5     c-3.4,1.7-6.9,3.3-10.3,4.8c-1.8,0.8-7.8,2.9-0.6,0.3c-2,0.7-3.9,1.6-5.9,2.4c-14.7,5.8-29.7,10.4-45.1,14     c-7.7,1.8-15.6,3.3-23.4,4.4c-2.1,0.3-8.4,0.8-0.3,0.1c-1.9,0.2-3.7,0.5-5.6,0.7c-3.9,0.4-7.9,0.8-11.8,1.1     c-15.6,1.1-31.2,1.1-46.8,0c-3.7-0.3-7.4-0.6-11.1-1c-1.9-0.2-3.7-0.4-5.6-0.7c-4.1-0.5,2.2,0.3,2.5,0.3     c-1.4-0.2-2.8-0.4-4.2-0.6c-7.6-1.2-15.2-2.6-22.7-4.4c-15.3-3.5-30.4-8.2-45.1-14c-1.8-0.7-3.5-1.5-5.3-2.1     c7.2,2.5,1.3,0.5-0.6-0.3c-3.9-1.7-7.8-3.5-11.6-5.4c-7.1-3.5-14-7.2-20.8-11.2c-6.9-4-13.6-8.4-20.1-12.9     c-3.2-2.2-6.4-4.5-9.5-6.9c-0.8-0.6-1.5-1.2-2.3-1.8c5.3,3.7,2.8,2.2,1.6,1.2c-1.9-1.5-3.8-3.1-5.7-4.6     c-12.8-10.6-24.7-22.2-35.7-34.6c-2.6-2.9-5.1-5.9-7.6-8.9c-1.2-1.5-2.4-3-3.6-4.5c-0.6-0.8-2.7-3.4-0.3-0.3     c2.6,3.3-0.1-0.2-0.7-0.9c-4.9-6.5-9.5-13.2-13.8-20c-8.4-13.3-15.9-27.2-22.3-41.6c-0.4-0.9-0.7-1.7-1.1-2.6     c-1.3-2.9,2.1,5,0.9,2.1c-0.7-1.7-1.4-3.4-2.1-5.2c-1.4-3.7-2.8-7.4-4.1-11.1c-2.6-7.4-4.9-14.9-7-22.5c-2-7.3-3.7-14.7-5.2-22.2     c-0.7-3.6-1.3-7.2-1.9-10.8c-0.3-2-0.6-4.1-0.9-6.1c0,0.2,0.8,6.7,0.4,2.6c-0.1-1.1-0.3-2.3-0.4-3.4c-1.8-15.2-2.4-30.6-1.9-45.9     c0.2-7.6,0.7-15.1,1.5-22.6c0.2-1.8,0.4-3.6,0.6-5.5c0.1-0.9,0.2-1.8,0.3-2.7c0.4-3.2-0.8,5.7-0.3,2.6c0.6-3.9,1.2-7.7,1.8-11.6     c2.8-15.4,6.7-30.6,11.7-45.5c1.2-3.5,2.4-7,3.7-10.5c0.7-1.7,1.3-3.5,2-5.2c0.4-1.1,3.1-7.5,1.4-3.5c-1.8,4.3,0.9-2,1.2-2.8     c0.8-1.7,1.5-3.4,2.3-5.1c1.7-3.6,3.4-7.2,5.3-10.7c7.4-14.3,15.9-28,25.4-41c1.1-1.6,2.3-3.1,3.4-4.6c0.9-1.3,3-3.2-1.3,1.6     c0.6-0.7,1.2-1.5,1.8-2.3c2.6-3.2,5.2-6.4,7.9-9.5c5.3-6.1,10.8-12.1,16.5-17.8c5.9-5.9,12-11.5,18.3-17c2.9-2.5,5.9-5,9-7.4     c0.7-0.6,1.6-1.2,2.3-1.8c-4.9,4.3-2.9,2.2-1.6,1.3c1.9-1.4,3.8-2.9,5.8-4.3c12.7-9.1,26-17.3,39.9-24.5c3.3-1.7,6.7-3.4,10.1-5     c1.7-0.8,3.4-1.6,5.1-2.3c1.9-0.8,9.4-3.7,1.7-0.8c7.4-2.8,14.6-5.8,22.1-8.3c14.4-4.8,29.2-8.6,44.1-11.2     c3.6-0.6,7.2-1.2,10.9-1.8c4.1-0.6-2.3,0.3-2.6,0.3c0.9-0.1,1.8-0.2,2.7-0.3c2.3-0.3,4.6-0.5,6.8-0.8c7.5-0.7,15.1-1.2,22.6-1.4     c15.3-0.4,30.7,0.2,45.9,2c0.9,0.1,1.8,0.2,2.7,0.3c4.1,0.5-2.3-0.3-2.6-0.4c1.8,0.3,3.6,0.5,5.4,0.8c4.1,0.6,8.1,1.4,12.2,2.2     c7.4,1.5,14.8,3.2,22.2,5.2c7.6,2.1,15.1,4.4,22.5,7c3.5,1.2,7,2.5,10.4,3.9c1.7,0.7,3.4,1.4,5.2,2.1c2.9,1.2-5-2.2-2.1-0.9     c1.1,0.5,2.1,0.9,3.2,1.4c14.4,6.4,28.3,13.9,41.5,22.4c6.6,4.2,13.1,8.7,19.4,13.5c0.8,0.6,1.5,1.2,2.3,1.7     c-5.3-3.5-2.9-2.3-1.6-1.3c1.7,1.4,3.4,2.7,5.1,4.1c3.2,2.6,6.3,5.3,9.4,8c12.4,11,23.9,23,34.5,35.8c1.3,1.5,2.5,3,3.7,4.6     c3.8,4.7-3-4.1,0.6,0.7c2.5,3.3,4.9,6.7,7.3,10.1c4.7,6.7,9.1,13.7,13.3,20.7c4.1,7,8,14.2,11.5,21.5c1.7,3.4,3.3,6.9,4.8,10.3     c0.8,1.8,2.8,7.8,0.3,0.6c0.7,2,1.6,3.9,2.4,5.9c5.7,14.7,10.4,29.8,13.9,45.1c1.8,7.7,3.2,15.6,4.4,23.4     c0.1,0.9,0.2,1.9,0.4,2.8c0-0.3-0.8-6.6-0.3-2.5c0.2,1.9,0.5,3.7,0.7,5.6c0.4,3.9,0.8,7.9,1.1,11.8c1.1,15.6,1.1,31.2-0.1,46.8     c-0.3,3.7-0.6,7.4-1,11.1c-0.2,1.9-0.5,3.7-0.7,5.6c0-0.3,0.9-6.6,0.3-2.5c-0.2,1.2-0.3,2.3-0.5,3.5c-1.2,7.9-2.7,15.7-4.5,23.4     c-3.6,15.3-8.3,30.4-14.1,45.1c-0.7,1.8-1.5,3.5-2.1,5.3c0.1-0.3,2.5-5.8,0.9-2c-0.4,0.9-0.8,1.7-1.1,2.6     c-1.6,3.7-3.4,7.4-5.1,11c-3.6,7.3-7.5,14.5-11.6,21.5c-3.9,6.7-8.1,13.2-12.5,19.5c-2.2,3.2-4.5,6.4-6.9,9.5     c-3.6,4.8,3.2-4-0.6,0.8C653.9,604,652.5,605.7,651.1,607.4c-4.3,5.3-7.3,10.6-7.3,17.7c0,6.1,2.7,13.5,7.3,17.7     c9.2,8.4,26.5,10.8,35.4,0c45.6-55.7,72.9-122.8,78.4-194.7c5.2-68.2-11.5-138.3-46.2-197.2c-35.5-60.2-90.2-110-154.3-138.2     c-63.8-28-133.4-36.5-202.1-24.4c-67.6,11.9-131,45.8-179.5,94.3c-48.6,48.6-82.6,112.3-94.4,180.2     c-12,68.7-3.4,138.3,24.8,202.1c28.3,64,78.2,118.7,138.5,154.1c59,34.6,129,51.1,197.3,45.8c71.5-5.5,138.7-32.8,194-78.3     c15.9-13.1,30.5-27.8,43.7-43.7c4.3-5.2,7.3-10.6,7.3-17.7c0-6.1-2.7-13.5-7.3-17.7C677.2,599,660,596.7,651.1,607.4z"></path></g></g><g><g><path d="M886.8,886.8c-1.2,1.2-2.5,2.3-3.7,3.4c-3.6,3.3,1.1-1,1.2-0.9c0.2,0.8-6.8,4.2-7.6,4.6     c-4,2.1-0.9-0.9,0.9-0.2c-0.5-0.2-3,1.1-3.7,1.4c-3,1-6.1,1.6-9.1,2.3c-3.5,0.7,6.6-0.4,1.2-0.2c-1.3,0-2.6,0.2-3.9,0.2     c-1.3,0-2.6,0-3.9-0.1c-0.5,0-1-0.1-1.6-0.1c-2.7-0.3-2.1-0.2,2,0.4c-1.8-1.1-5.5-1.1-7.7-1.7c-1-0.3-2-0.6-3-1     c-1-0.3-2-0.7-3-1.1c3.5,1.5,4.1,1.7,1.6,0.6c-2.3-1.4-4.6-2.7-6.9-4.1c-3.1-1.8,0.5,1,1.1,1c-0.8,0-3.2-2.7-3.8-3.3     c-0.6-0.5-1.1-1.1-1.7-1.6c-1.3-1.3-2.6-2.6-3.9-3.9c-14.3-14.3-28.7-28.7-43-43c-19.3-19.3-38.6-38.6-58-58     c-10.5-10.5-20.6-21.7-31.6-31.6c-3.6-3.2-7.4,33.2,1.1,25c2.5-2.4,4.9-4.9,7.4-7.4c8.7-8.7,17.5-17.5,26.2-26.2     c9.3-9.3,18.6-18.6,28-28c4.7-4.7,10.5-9.3,14.6-14.6c0.2-0.3-26.5-0.2-26.4,0c0.3,0.4,0.7,0.7,1.1,1.1c1.6,1.7,3.4,3.4,5,5     c6.4,6.4,12.8,12.8,19.1,19.1c18.7,18.7,37.5,37.5,56.2,56.2c15.9,15.9,31.9,31.9,47.8,47.8c2.6,2.6,5.2,5.1,7.7,7.7     c0.9,0.9,1.7,1.7,2.5,2.7c1.6,1.8,1.8,3.8-0.7-1.2c1,2,2.7,3.9,3.9,5.9c1.2,2,2.1,4.1,3.2,6.2c-3.3-6.5-1.2-2.7-0.5-0.8     c0.4,1.3,0.8,2.6,1.2,3.9c0.7,2.7,0.8,9.4,0.6,1.4c0.1,2.3,0.4,4.5,0.5,6.8c0,2.3-0.2,4.5-0.3,6.8c-0.3,5.1,1.2-6.3,0.1-1.3     c-0.3,1.3-0.6,2.7-0.9,4c-0.5,2.1-1.9,4.4-2.1,6.5c0.5-1.1,1-2.3,1.5-3.4c-0.4,0.8-0.8,1.7-1.2,2.5c-0.4,0.8-0.8,1.7-1.3,2.5     c-1.3,2.3-2.7,4.4-4.2,6.5c-1.9,2.7,4.3-4.8,0.8-1.1C888.8,884.6,887.8,885.8,886.8,886.8c-9.1,9.4-10,26.1,0,35.4     c9.9,9.1,25.6,10,35.4,0c20-20.5,28.2-48.2,23.7-76.3c-2.8-17.7-12.2-33.9-24.7-46.5c-13-13-26-26-39-39     c-20.3-20.3-40.6-40.6-60.9-60.9c-11.9-11.9-23.6-24.2-35.8-35.8c-12.7-12.1-31.5-12.5-44.5-0.4c-1.4,1.3-2.7,2.7-4.1,4.1     c-8,8-15.9,15.9-23.9,23.9c-16.3,16.3-33.2,32.1-49,49c-12.1,12.9-13,31.6-0.7,44.8c0.8,0.8,1.6,1.6,2.4,2.4     c5.5,5.5,11,11,16.5,16.5c19.2,19.2,38.5,38.5,57.7,57.7c17.2,17.2,34.4,34.4,51.6,51.6c2.9,2.9,5.8,5.9,8.8,8.8     c21.8,21.3,53.4,30.1,83,22.3c14.6-3.8,27.9-11.8,38.7-22.3c9.4-9.1,9.9-26.3,0-35.4C912.1,877.5,896.8,877,886.8,886.8z"></path></g></g><g><g><path d="M630.3,665.7c20.9,20.9,41.7,41.7,62.6,62.6c3,3,5.9,5.9,8.9,8.9c9.3,9.3,26.2,9.9,35.4,0     c9.2-10,9.9-25.5,0-35.4c-20.9-20.9-41.7-41.7-62.6-62.6c-3-3-5.9-5.9-8.9-8.9c-9.3-9.3-26.2-9.9-35.4,0     C621.2,640.3,620.4,655.8,630.3,665.7L630.3,665.7z"></path></g></g></g></svg></g></svg>