<?xml version="1.0" encoding="UTF-8"?>
<svg width="752pt" height="752pt" version="1.1" viewBox="0 0 752 752" xmlns="http://www.w3.org/2000/svg">
 <g>
  <path d="m37.602 0h676.8c20.766 0 37.602 20.766 37.602 37.602v676.8c0 20.766-16.836 37.602-37.602 37.602h-676.8c-20.766 0-37.602-20.766-37.602-37.602v-676.8c0-20.766 16.836-37.602 37.602-37.602z" fill="#12b0fb"/>
  <path d="m205.86 272.21c8.7422 10.496 18.652 22.395 38.551 22.395 19.906 0 29.816-11.898 38.562-22.395 7.9492-9.5352 14.223-17.07 27.191-17.07 12.98 0 19.258 7.5312 27.207 17.07 8.7461 10.496 18.66 22.395 38.57 22.395 19.906 0 29.816-11.898 38.562-22.395 7.9492-9.5352 14.223-17.07 27.195-17.07 12.988 0 19.27 7.5312 27.223 17.07 8.75 10.496 18.672 22.395 38.586 22.395 19.922 0 29.836-11.898 38.586-22.395 7.9531-9.5391 14.23-17.07 27.215-17.07v-14.801c-19.914 0-29.836 11.898-38.582 22.395-7.9531 9.5352-14.23 17.07-27.223 17.07-12.988 0-19.27-7.5312-27.223-17.07-8.75-10.496-18.672-22.395-38.586-22.395-19.906 0-29.816 11.898-38.562 22.395-7.9492 9.5352-14.223 17.07-27.195 17.07-12.98 0-19.254-7.5312-27.207-17.07-8.7461-10.496-18.668-22.395-38.578-22.395-19.906 0-29.816 11.898-38.562 22.395-7.9492 9.5391-14.223 17.07-27.195 17.07-12.969 0-19.238-7.5312-27.18-17.07-8.7461-10.496-18.656-22.395-38.559-22.395v14.801c12.984 0.003906 19.262 7.5352 27.203 17.07z" fill="#fff"/>
  <path d="m205.86 380.74c8.7422 10.496 18.652 22.395 38.551 22.395 19.906 0 29.816-11.898 38.562-22.395 7.9492-9.5352 14.223-17.07 27.191-17.07 12.98 0 19.258 7.5312 27.207 17.07 8.7461 10.496 18.66 22.395 38.57 22.395 19.906 0 29.816-11.898 38.562-22.395 7.9492-9.5352 14.223-17.07 27.195-17.07 12.988 0 19.27 7.5312 27.223 17.07 8.75 10.496 18.672 22.395 38.586 22.395 19.922 0 29.836-11.898 38.586-22.395 7.9531-9.5391 14.23-17.07 27.215-17.07v-14.801c-19.914 0-29.836 11.898-38.582 22.395-7.9531 9.5352-14.23 17.07-27.223 17.07-12.988 0-19.27-7.5312-27.223-17.07-8.75-10.496-18.672-22.395-38.586-22.395-19.906 0-29.816 11.898-38.562 22.395-7.9492 9.5352-14.223 17.07-27.195 17.07-12.98 0-19.254-7.5312-27.207-17.07-8.7461-10.496-18.668-22.395-38.578-22.395-19.906 0-29.816 11.898-38.562 22.395-7.9492 9.5391-14.223 17.07-27.195 17.07-12.969 0-19.238-7.5312-27.18-17.07-8.7461-10.496-18.656-22.395-38.559-22.395v14.801c12.984 0 19.262 7.5352 27.203 17.07z" fill="#fff"/>
  <path d="m205.86 489.27c8.7422 10.496 18.652 22.395 38.551 22.395 19.906 0 29.816-11.898 38.562-22.395 7.9492-9.5352 14.223-17.07 27.191-17.07 12.98 0 19.258 7.5312 27.207 17.07 8.7461 10.496 18.66 22.395 38.57 22.395 19.906 0 29.816-11.898 38.562-22.395 7.9492-9.5352 14.223-17.07 27.195-17.07 12.988 0 19.27 7.5312 27.223 17.07 8.75 10.496 18.672 22.395 38.586 22.395 19.922 0 29.836-11.898 38.586-22.395 7.9531-9.5391 14.23-17.07 27.215-17.07v-14.801c-19.914 0-29.836 11.898-38.582 22.395-7.9531 9.5352-14.23 17.07-27.223 17.07-12.988 0-19.27-7.5312-27.223-17.07-8.75-10.496-18.672-22.395-38.586-22.395-19.906 0-29.816 11.898-38.562 22.395-7.9492 9.5352-14.223 17.07-27.195 17.07-12.98 0-19.254-7.5312-27.207-17.07-8.7461-10.496-18.668-22.395-38.578-22.395-19.906 0-29.816 11.898-38.562 22.395-7.9492 9.5391-14.223 17.07-27.195 17.07-12.969 0-19.238-7.5312-27.18-17.07-8.7461-10.496-18.656-22.395-38.559-22.395v14.801c12.984 0.003907 19.262 7.5352 27.203 17.07z" fill="#fff"/>
 </g>
</svg>
