<svg xmlns="http://www.w3.org/2000/svg" xmlns:xlink="http://www.w3.org/1999/xlink" width="1200" height="1200" viewBox="0 0 1200 1200"><rect width="100%" height="100%" fill="#0080FF" rx="60" ry="60"></rect><g transform="translate(600 600) scale(0.69 0.69) rotate(0) translate(-600 -600)" style="fill:#FFFFFF"><svg fill="#FFFFFF" xmlns="http://www.w3.org/2000/svg" xmlns:xlink="http://www.w3.org/1999/xlink" version="1.1" x="0px" y="0px" viewBox="-11 13 24 24" style="enable-background:new -11 13 24 24;" xml:space="preserve"><g><path d="M4.6,27.8c0.5,0,0.9,0.1,1.3,0.4l0.7-0.6c0-2.3-1-4.4-2.5-5.6c-0.9,1-2,1.6-3.3,1.6c-1.3,0-2.5-0.6-3.3-1.6   C-4,23.2-5,25.3-5,27.7v4.6c0,0.7,0.5,1.3,1.1,1.3h5.7c-0.3-0.6-0.4-1.2-0.4-1.9C1.4,29.5,2.8,27.8,4.6,27.8z"></path><path d="M11.1,33.4c-0.3,0-0.6,0.1-0.8,0.2l-3.5-2.4l3.5-2.4c0.3,0.1,0.5,0.2,0.9,0.2c1,0,1.8-0.7,1.9-1.6c0.1-1.1-0.8-2-1.9-2   c-1,0-1.9,0.8-1.9,1.8c0,0.1,0,0.2,0,0.2l-3.5,2.4c-0.3-0.3-0.8-0.4-1.2-0.4c-1,0-1.9,0.8-1.9,1.8c0,1,0.8,1.8,1.9,1.8   c0.5,0,0.9-0.2,1.2-0.4l3.5,2.4c0,0.1,0,0.2,0,0.3c0,1,0.8,1.8,1.9,1.8c1,0,1.9-0.8,1.9-1.8C13,34.2,12.1,33.4,11.1,33.4z"></path><path d="M0.9,21.9c1.9,0,3.4-1.8,3.4-4c0-3-1.5-4-3.4-4c-1.9,0-3.4,0.9-3.4,4C-2.6,20.1-1,21.9,0.9,21.9z"></path><path d="M-5.6,22.5c0.5,0,1-0.1,1-0.1c0.6-0.7,0.8-1,1.4-1.5c0,0-0.6-1-0.7-2.1c-0.2-1.2,0.3-2.2,0.3-2.2c-0.5-0.4-1.2-0.6-1.9-0.6   c-1.6,0-2.9,0.8-2.9,3.3C-8.5,22.2-5.9,22.5-5.6,22.5z"></path><path d="M-11,27v3.9c0,0.6,0.5,1.1,1.1,1.1h3.5v-4.2c0-1.4,0.4-2.8,1-4c-1.3-0.1-2.4-0.6-3.3-1.5C-10.1,23.4-11,25.1-11,27z"></path></g></svg></g></svg>