<?xml version="1.0" encoding="UTF-8"?>
<svg width="752pt" height="752pt" version="1.1" viewBox="0 0 752 752" xmlns="http://www.w3.org/2000/svg">
 <g>
  <path d="m37.602 0h676.8c20.766 0 37.602 20.766 37.602 37.602v676.8c0 20.766-16.836 37.602-37.602 37.602h-676.8c-20.766 0-37.602-20.766-37.602-37.602v-676.8c0-20.766 16.836-37.602 37.602-37.602z" fill="#ff7600"/>
  <path d="m564.39 360.93h-266.48c-6.1406-16.48-21.988-28.27-40.582-28.27s-34.441 11.793-40.582 28.27h-33.176c-8.3203 0-15.07 6.7461-15.07 15.07 0 8.3203 6.7461 15.07 15.07 15.07h33.176c6.1406 16.48 21.988 28.27 40.582 28.27s34.441-11.789 40.582-28.27h266.48c8.3203 0 15.07-6.7461 15.07-15.07-0.003906-8.3242-6.7539-15.07-15.074-15.07zm-307.06 51.945c-20.367 0-36.879-16.512-36.879-36.879s16.512-36.879 36.879-36.879c20.367 0 36.879 16.512 36.879 36.879 0 20.371-16.516 36.879-36.879 36.879z"/>
 </g>
</svg>
