<svg xmlns="http://www.w3.org/2000/svg" xmlns:xlink="http://www.w3.org/1999/xlink" width="1200" height="1200" viewBox="0 0 1200 1200"><rect width="100%" height="100%" fill="#848484" rx="60" ry="60"></rect><g transform="translate(600 600) scale(0.69 0.69) rotate(0) translate(-600 -600)" style="fill:#FFFFFF"><svg fill="#FFFFFF" xmlns="http://www.w3.org/2000/svg" xmlns:xlink="http://www.w3.org/1999/xlink" version="1.1" x="0px" y="0px" viewBox="0 0 32 32" style="enable-background:new 0 0 32 32;" xml:space="preserve"><g><path d="M23.333,7.897c-0.592-2.837-2.895-5.14-5.729-5.729c-2.266-0.477-4.571,0.078-6.332,1.511C9.51,5.11,8.5,7.232,8.5,9.5   c0,0.553,0.448,1,1,1s1-0.447,1-1c0-1.663,0.741-3.22,2.033-4.27c1.292-1.051,2.992-1.454,4.662-1.105   c2.068,0.432,3.748,2.111,4.181,4.181c0.406,1.949-0.207,3.905-1.641,5.231C16.682,16.362,15,19.999,15,23.8   c0,0.553,0.448,0.988,1,0.988s1-0.459,1-1.012c0-3.214,1.454-6.329,4.093-8.771C23.047,13.198,23.885,10.541,23.333,7.897z"></path><circle cx="16" cy="27.7" r="1.3"></circle></g></svg></g></svg>