<svg xmlns="http://www.w3.org/2000/svg" xmlns:xlink="http://www.w3.org/1999/xlink" width="1200" height="1200" viewBox="0 0 1200 1200"><rect width="100%" height="100%" fill="#1A1A1A" rx="60" ry="60"></rect><g transform="translate(600 600) scale(0.69 0.69) rotate(0) translate(-600 -600)" style="fill:#FFFFFF"><svg fill="#FFFFFF" xmlns="http://www.w3.org/2000/svg" viewBox="0 0 32 32" x="0px" y="0px"><title>upload</title><g><path d="M26,3H6A3,3,0,0,0,3,6V26a3,3,0,0,0,3,3H26a3,3,0,0,0,3-3V6A3,3,0,0,0,26,3ZM23.75,17.89a1,1,0,0,1-.75.33,1,1,0,0,1-.66-.25L17,13.23V25a1,1,0,0,1-2,0V13.23L9.66,18a1,1,0,1,1-1.32-1.49l7-6.23a.75.75,0,0,1,.15-.09l.14-.09a1,1,0,0,1,.74,0l.14.09a.75.75,0,0,1,.15.09l7,6.23A1,1,0,0,1,23.75,17.89ZM23,9H9A1,1,0,0,1,9,7H23a1,1,0,0,1,0,2Z"></path></g></svg></g></svg>