<svg xmlns="http://www.w3.org/2000/svg" xmlns:xlink="http://www.w3.org/1999/xlink" width="1200" height="1200" viewBox="0 0 1200 1200"><rect width="100%" height="100%" fill="#2cc0de" rx="60" ry="60"></rect><g transform="translate(600 600) scale(0.69 0.69) rotate(0) translate(-600 -600)" style="fill:#ffffff"><svg fill="#ffffff" xmlns="http://www.w3.org/2000/svg" data-name="Layer 1" viewBox="0 0 100 100" x="0px" y="0px"><title>11</title><g data-name="Group"><path data-name="Compound Path" d="M3.14,51.38v0c1,4.62,6.94,10.89,15.14,16a61.16,61.16,0,0,0,31.8,9.44c23.73,0,44.41-16.27,46.69-25.15A5.61,5.61,0,0,0,97.06,50q0-.09,0-.18a5,5,0,0,0-.21-1.27c-1.9-8.77-22.79-25.45-46.75-25.45-23.57,0-44.43,16.2-46.85,25A5.91,5.91,0,0,0,2.94,50V50A5,5,0,0,0,3.14,51.38ZM9,49.91l0-.12c1.32-5,18.49-20.63,41.07-20.63,22.29,0,39.81,15.4,40.88,20.73L91,50v0h0l0,.13c-1.23,5-18.17,20.66-40.88,20.66C27.88,70.84,10.17,55.46,9,50.06L9,50Z"></path><path data-name="Compound Path" d="M50,67.84A17.84,17.84,0,1,0,32.16,50,17.86,17.86,0,0,0,50,67.84Zm0-29.68A11.84,11.84,0,1,1,38.16,50,11.85,11.85,0,0,1,50,38.16Z"></path></g></svg></g></svg>