<svg xmlns="http://www.w3.org/2000/svg" xmlns:xlink="http://www.w3.org/1999/xlink" width="1200" height="1200" viewBox="0 0 1200 1200"><rect width="100%" height="100%" fill="#2cc0de" rx="60" ry="60"></rect><g transform="translate(600 600) scale(0.69 0.69) rotate(0) translate(-600 -600)" style="fill:#ffffff"><svg fill="#ffffff" xmlns="http://www.w3.org/2000/svg" viewBox="0 0 32 32" x="0px" y="0px"><g data-name="Zoom In"><path d="M13,8a5,5,0,1,0,5,5A5.006,5.006,0,0,0,13,8Zm3,6H14v2H12V14H10V12h2V10h2v2h2Z"></path><path d="M30,5a3,3,0,0,0-3-3H5A3,3,0,0,0,2,5V27a3,3,0,0,0,3,3H27a3,3,0,0,0,3-3ZM24.293,25.707,17.184,18.6A7.028,7.028,0,1,1,18.6,17.184l7.109,7.109Z"></path></g></svg></g></svg>